<?xml version="1.0" encoding="UTF-8"?>
<svg id="Layer_2" data-name="Layer 2" xmlns="http://www.w3.org/2000/svg" xmlns:xlink="http://www.w3.org/1999/xlink" viewBox="0 0 145.13 166.13">
  <defs>
    <style>
      .cls-1 {
        fill: #c1272d;
      }

      .cls-1, .cls-2, .cls-3, .cls-4, .cls-5, .cls-6, .cls-7, .cls-8, .cls-9, .cls-10, .cls-11, .cls-12 {
        stroke-width: 0px;
      }

      .cls-2 {
        fill: #58595b;
      }

      .cls-3 {
        fill: none;
      }

      .cls-4 {
        fill: #c90;
      }

      .cls-5 {
        fill: #fff;
      }

      .cls-6 {
        fill: #231f20;
      }

      .cls-7 {
        fill: url(#_6_dpi_30_);
      }

      .cls-8 {
        fill: #bcbec0;
      }

      .cls-9 {
        fill: #d1d3d4;
      }

      .cls-10 {
        fill: #ceb15f;
      }

      .cls-11 {
        fill: #006837;
      }

      .cls-12 {
        fill: #004e29;
      }
    </style>
    <pattern id="_6_dpi_30_" data-name="6 dpi 30%" x="0" y="0" width="48" height="48" patternTransform="translate(-5561.41 -2999.63) rotate(-135) scale(.41 -.41)" patternUnits="userSpaceOnUse" viewBox="0 0 48 48">
      <g>
        <rect class="cls-3" y="0" width="48" height="48"/>
        <g>
          <circle class="cls-6" cx="24" cy="48" r="3.6"/>
          <circle class="cls-6" cx="48" cy="48" r="3.6"/>
          <circle class="cls-6" cx="24" cy="24" r="3.6"/>
          <circle class="cls-6" cx="48" cy="24" r="3.6"/>
          <circle class="cls-6" cx="36" cy="36" r="3.6"/>
          <circle class="cls-6" cx="12" cy="36" r="3.6"/>
          <circle class="cls-6" cx="36" cy="12" r="3.6"/>
          <circle class="cls-6" cx="12" cy="12" r="3.6"/>
        </g>
        <g>
          <circle class="cls-6" cy="48" r="3.6"/>
          <circle class="cls-6" cy="24" r="3.6"/>
        </g>
        <g>
          <circle class="cls-6" cx="24" cy="0" r="3.6"/>
          <circle class="cls-6" cx="48" cy="0" r="3.6"/>
        </g>
        <circle class="cls-6" cy="0" r="3.6"/>
      </g>
    </pattern>
  </defs>
  <g id="Object">
    <g>
      <path class="cls-9" d="m72.56,0C40.32,0,14.18,26.14,14.18,58.38v89.24h116.76V58.38C130.94,26.14,104.8,0,72.56,0Z"/>
      <path class="cls-5" d="m44.47,54.65l-6.94-4,6.49-3.75c.58-.33.78-1.08.44-1.66-.33-.58-1.08-.78-1.66-.44l-6.49,3.75v-8.01c0-.67-.54-1.21-1.21-1.21s-1.21.54-1.21,1.21v8.01l-6.49-3.75c-.58-.34-1.32-.14-1.66.44-.33.58-.14,1.32.44,1.66l6.49,3.75-6.94,4c-.58.33-.78,1.08-.44,1.66.22.39.63.61,1.05.61.21,0,.41-.05.6-.16l6.94-4v7.5c0,.67.54,1.21,1.21,1.21s1.21-.54,1.21-1.21v-7.5l6.94,4c.19.11.4.16.6.16.42,0,.83-.22,1.05-.61.33-.58.14-1.32-.44-1.66Z"/>
      <path class="cls-5" d="m70.5,27.86l-6.94-4,6.49-3.75c.58-.33.78-1.08.44-1.66-.33-.58-1.08-.78-1.66-.44l-6.49,3.75v-8.01c0-.67-.54-1.21-1.21-1.21s-1.21.54-1.21,1.21v8.01l-6.49-3.75c-.58-.34-1.32-.14-1.66.44-.33.58-.14,1.32.44,1.66l6.49,3.75-6.94,4c-.58.33-.78,1.08-.44,1.66.22.39.63.61,1.05.61.21,0,.41-.05.61-.16l6.94-4v7.5c0,.67.54,1.21,1.21,1.21s1.21-.54,1.21-1.21v-7.5l6.94,4c.19.11.4.16.6.16.42,0,.83-.22,1.05-.61.33-.58.14-1.32-.44-1.66Z"/>
      <path class="cls-5" d="m106.74,45.65l-6.94-4,6.49-3.75c.58-.33.78-1.08.44-1.66-.33-.58-1.08-.78-1.66-.44l-6.49,3.75v-8.01c0-.67-.54-1.21-1.21-1.21s-1.21.54-1.21,1.21v8.01l-6.49-3.75c-.58-.34-1.32-.14-1.66.44-.33.58-.14,1.32.44,1.66l6.49,3.75-6.94,4c-.58.33-.78,1.08-.44,1.66.22.39.63.61,1.05.61.21,0,.41-.05.61-.16l6.94-4v7.5c0,.67.54,1.21,1.21,1.21s1.21-.54,1.21-1.21v-7.5l6.94,4c.19.11.4.16.6.16.42,0,.83-.22,1.05-.61.33-.58.14-1.32-.44-1.66Z"/>
      <path class="cls-5" d="m123.56,83.11l-6.94-4,6.49-3.75c.58-.33.78-1.08.44-1.66-.33-.58-1.08-.78-1.66-.44l-6.49,3.75v-8.01c0-.67-.54-1.21-1.21-1.21s-1.21.54-1.21,1.21v8.01l-6.49-3.75c-.58-.34-1.32-.14-1.66.44-.33.58-.14,1.32.44,1.66l6.49,3.75-6.94,4c-.58.33-.78,1.08-.44,1.66.22.39.63.61,1.05.61.21,0,.41-.05.6-.16l6.94-4v7.5c0,.67.54,1.21,1.21,1.21s1.21-.54,1.21-1.21v-7.5l6.94,4c.19.11.4.16.6.16.42,0,.83-.22,1.05-.61.33-.58.14-1.32-.44-1.66Z"/>
      <g>
        <polygon class="cls-11" points="109.54 126.19 90.46 102.69 105.29 102.67 86.19 79.15 100.83 79.13 72.61 44.38 44.3 79.22 58.99 79.2 39.84 102.77 54.72 102.75 35.59 126.3 109.54 126.19"/>
        <polygon class="cls-12" points="74.22 126.24 35.59 126.3 54.72 102.75 39.84 102.77 58.99 79.2 44.3 79.22 72.61 44.38 74.22 126.24"/>
        <rect class="cls-2" x="66.99" y="120.5" width="13" height="19"/>
        <circle class="cls-1" cx="78.15" cy="72.99" r="5.72"/>
        <circle class="cls-1" cx="60.57" cy="94.31" r="5.72"/>
      </g>
      <path class="cls-8" d="m121.24,55.52c0-22.85-18.52-41.37-41.37-41.37l41.37,41.37Z"/>
      <g>
        <path class="cls-4" d="m145.13,152.72c0,7.41-6,13.41-13.41,13.41H13.41c-7.41,0-13.41-6-13.41-13.41h0c0-7.41,6-13.41,13.41-13.41h118.31c7.41,0,13.41,6,13.41,13.41h0Z"/>
        <path class="cls-10" d="m0,152.72c0,7.41,6,13.41,13.41,13.41h118.31c7.41,0,13.41-6,13.41-13.41H0Z"/>
      </g>
      <polygon class="cls-7" points="19.71 65.71 19.71 134.92 51.47 134.92 19.71 65.71"/>
    </g>
  </g>
</svg>