<?xml version="1.0" encoding="UTF-8"?>
<svg id="Layer_2" data-name="Layer 2" xmlns="http://www.w3.org/2000/svg" viewBox="0 0 188.23 190.11">
  <defs>
    <style>
      .cls-1 {
        fill: #c1272d;
      }

      .cls-1, .cls-2, .cls-3, .cls-4 {
        stroke-width: 0px;
      }

      .cls-2 {
        fill: #c90;
      }

      .cls-3 {
        fill: #ceb15f;
      }

      .cls-4 {
        fill: #006837;
      }
    </style>
  </defs>
  <g id="Object">
    <g>
      <g>
        <g>
          <path class="cls-3" d="m50.24,21.48c-1.17,0-2.31-.61-2.93-1.69l-1.5-2.6c-.93-1.62-.38-3.69,1.24-4.62,1.62-.93,3.69-.38,4.62,1.24l1.5,2.6c.93,1.62.38,3.69-1.24,4.62-.53.31-1.11.45-1.69.45Z"/>
          <path class="cls-3" d="m69.42,54.69c-1.17,0-2.31-.61-2.93-1.69l-3.49-6.04c-.93-1.62-.38-3.69,1.24-4.62,1.62-.93,3.69-.38,4.62,1.24l3.49,6.04c.93,1.62.38,3.69-1.24,4.62-.53.31-1.11.45-1.69.45Zm-9.59-16.61c-1.17,0-2.31-.61-2.93-1.69l-3.49-6.04c-.93-1.62-.38-3.69,1.24-4.62,1.62-.93,3.69-.38,4.62,1.24l3.49,6.04c.93,1.62.38,3.69-1.24,4.62-.53.31-1.11.45-1.69.45Z"/>
          <path class="cls-3" d="m77.02,67.86c-1.17,0-2.31-.61-2.93-1.69l-1.5-2.6c-.93-1.62-.38-3.69,1.24-4.62,1.62-.93,3.69-.38,4.62,1.24l1.5,2.6c.93,1.62.38,3.69-1.24,4.62-.53.31-1.11.45-1.69.45Z"/>
        </g>
        <g>
          <path class="cls-3" d="m6.39,97.7h-3.01c-1.87,0-3.38-1.63-3.38-3.5s1.51-3.5,3.38-3.5h3.01c1.87,0,3.38,1.63,3.38,3.5s-1.51,3.5-3.38,3.5Z"/>
          <path class="cls-3" d="m44.71,97.7h-7.14c-1.87,0-3.38-1.63-3.38-3.5s1.51-3.5,3.38-3.5h7.14c1.87,0,3.38,1.63,3.38,3.5s-1.51,3.5-3.38,3.5Zm-19.16,0h-7.14c-1.87,0-3.38-1.63-3.38-3.5s1.51-3.5,3.38-3.5h7.14c1.87,0,3.38,1.63,3.38,3.5s-1.51,3.5-3.38,3.5Z"/>
          <path class="cls-3" d="m59.74,97.7h-3.01c-1.87,0-3.38-1.63-3.38-3.5s1.51-3.5,3.38-3.5h3.01c1.87,0,3.38,1.63,3.38,3.5s-1.51,3.5-3.38,3.5Z"/>
        </g>
        <g>
          <path class="cls-3" d="m48.73,176.11c-.57,0-1.16-.15-1.69-.45-1.62-.93-2.17-3-1.24-4.62l1.5-2.6c.93-1.62,3-2.17,4.62-1.24,1.62.93,2.17,3,1.24,4.62l-1.5,2.6c-.63,1.08-1.76,1.69-2.93,1.69Z"/>
          <path class="cls-3" d="m56.34,162.94c-.57,0-1.15-.15-1.69-.45-1.62-.93-2.17-3-1.24-4.62l3.49-6.04c.93-1.62,3-2.17,4.62-1.24,1.62.93,2.17,3,1.24,4.62l-3.49,6.04c-.63,1.08-1.76,1.69-2.93,1.69Zm9.59-16.61c-.57,0-1.15-.15-1.69-.45-1.62-.93-2.17-3-1.24-4.62l3.49-6.04c.93-1.62,3-2.17,4.62-1.24,1.62.93,2.17,3,1.24,4.62l-3.49,6.04c-.63,1.08-1.76,1.69-2.93,1.69Z"/>
          <path class="cls-3" d="m75.51,129.72c-.57,0-1.16-.15-1.69-.45-1.62-.93-2.17-3-1.24-4.62l1.5-2.6c.93-1.62,3-2.17,4.62-1.24,1.62.93,2.17,3,1.24,4.62l-1.5,2.6c-.63,1.08-1.76,1.69-2.93,1.69Z"/>
        </g>
        <g>
          <path class="cls-3" d="m139.52,176.11c-1.17,0-2.31-.61-2.93-1.69l-1.5-2.6c-.93-1.62-.38-3.69,1.24-4.62,1.62-.93,3.69-.38,4.62,1.24l1.5,2.6c.93,1.62.38,3.69-1.24,4.62-.53.31-1.11.45-1.69.45Z"/>
          <path class="cls-3" d="m131.91,162.93c-1.17,0-2.31-.61-2.93-1.69l-3.49-6.04c-.93-1.62-.38-3.69,1.24-4.62,1.62-.93,3.69-.38,4.62,1.24l3.49,6.04c.93,1.62.38,3.69-1.24,4.62-.53.31-1.11.45-1.69.45Zm-9.59-16.61c-1.17,0-2.31-.61-2.93-1.69l-3.49-6.04c-.93-1.62-.38-3.69,1.24-4.62,1.62-.93,3.69-.38,4.62,1.24l3.49,6.04c.93,1.62.38,3.69-1.24,4.62-.53.31-1.11.45-1.69.45Z"/>
          <path class="cls-3" d="m112.74,129.72c-1.17,0-2.31-.61-2.93-1.69l-1.5-2.6c-.93-1.62-.38-3.69,1.24-4.62,1.62-.93,3.69-.38,4.62,1.24l1.5,2.6c.93,1.62.38,3.69-1.24,4.62-.53.31-1.11.45-1.69.45Z"/>
        </g>
        <g>
          <path class="cls-3" d="m184.85,97.7h-3.01c-1.87,0-3.38-1.63-3.38-3.5s1.51-3.5,3.38-3.5h3.01c1.87,0,3.38,1.63,3.38,3.5s-1.51,3.5-3.38,3.5Z"/>
          <path class="cls-3" d="m169.82,97.7h-7.14c-1.87,0-3.38-1.63-3.38-3.5s1.51-3.5,3.38-3.5h7.14c1.87,0,3.38,1.63,3.38,3.5s-1.51,3.5-3.38,3.5Zm-19.16,0h-7.14c-1.87,0-3.38-1.63-3.38-3.5s1.51-3.5,3.38-3.5h7.14c1.87,0,3.38,1.63,3.38,3.5s-1.51,3.5-3.38,3.5Z"/>
          <path class="cls-3" d="m131.5,97.7h-3.01c-1.87,0-3.38-1.63-3.38-3.5s1.51-3.5,3.38-3.5h3.01c1.87,0,3.38,1.63,3.38,3.5s-1.51,3.5-3.38,3.5Z"/>
        </g>
        <g>
          <path class="cls-2" d="m93.24,62.74c-1.76,0-3-1.43-3-3.19V3.19c0-1.76,1.24-3.19,3-3.19s3,1.43,3,3.19v56.36c0,1.76-1.24,3.19-3,3.19Z"/>
          <path class="cls-2" d="m64.49,80.2c-.54,0-1.09-.14-1.59-.43L13.91,51.49c-1.53-.88-2.05-2.84-1.17-4.36.88-1.53,2.84-2.05,4.36-1.17l48.99,28.28c1.53.88,2.05,2.84,1.17,4.36-.59,1.02-1.67,1.6-2.77,1.6Z"/>
          <path class="cls-2" d="m15.51,142.69c-1.1,0-2.18-.57-2.77-1.6-.88-1.53-.36-3.48,1.17-4.36l48.99-28.28c1.53-.88,3.48-.36,4.36,1.17.88,1.53.36,3.48-1.17,4.36l-48.99,28.28c-.5.29-1.05.43-1.59.43Z"/>
          <path class="cls-2" d="m93.24,190.11c-1.76,0-3-1.43-3-3.19v-58.99c0-1.76,1.24-3.19,3-3.19s3,1.43,3,3.19v58.99c0,1.76-1.24,3.19-3,3.19Z"/>
          <path class="cls-2" d="m172.73,142.69c-.54,0-1.09-.14-1.59-.43l-48.99-28.28c-1.53-.88-2.05-2.83-1.17-4.36.88-1.53,2.84-2.05,4.36-1.17l48.99,28.28c1.53.88,2.05,2.83,1.17,4.36-.59,1.02-1.67,1.6-2.77,1.6Z"/>
          <path class="cls-2" d="m123.75,80.2c-1.1,0-2.18-.57-2.77-1.6-.88-1.53-.36-3.48,1.17-4.36l48.99-28.28c1.53-.88,3.48-.36,4.36,1.17.88,1.53.36,3.48-1.17,4.36l-48.99,28.28c-.5.29-1.05.43-1.59.43Z"/>
        </g>
        <g>
          <path class="cls-3" d="m138.01,21.48c-.57,0-1.16-.15-1.69-.45-1.62-.93-2.17-3-1.24-4.62l1.5-2.6c.93-1.62,3-2.17,4.62-1.24,1.62.93,2.17,3,1.24,4.62l-1.5,2.6c-.63,1.08-1.76,1.69-2.93,1.69Z"/>
          <path class="cls-3" d="m118.83,54.7c-.57,0-1.15-.15-1.69-.45-1.62-.93-2.17-3-1.24-4.62l3.49-6.04c.93-1.62,3-2.17,4.62-1.24,1.62.93,2.17,3,1.24,4.62l-3.49,6.04c-.63,1.08-1.76,1.69-2.93,1.69Zm9.59-16.61c-.57,0-1.15-.15-1.69-.45-1.62-.93-2.17-3-1.24-4.62l3.49-6.04c.93-1.62,3-2.17,4.62-1.24,1.62.93,2.17,3,1.24,4.62l-3.49,6.04c-.63,1.08-1.76,1.69-2.93,1.69Z"/>
          <path class="cls-3" d="m111.22,67.87c-.57,0-1.16-.15-1.69-.45-1.62-.93-2.17-3-1.24-4.62l1.5-2.6c.93-1.62,3-2.17,4.62-1.24,1.62.93,2.17,3,1.24,4.62l-1.5,2.6c-.63,1.08-1.76,1.69-2.93,1.69Z"/>
        </g>
        <circle class="cls-3" cx="94.13" cy="94.11" r="8.67"/>
        <g>
          <path class="cls-4" d="m102.98,63.32c-.19,0-.39-.03-.58-.08-1.2-.32-1.92-1.56-1.59-2.76l14.63-54.64c.32-1.2,1.56-1.92,2.76-1.59,1.2.32,1.92,1.56,1.59,2.76l-14.63,54.64c-.27,1.01-1.18,1.67-2.18,1.67Z"/>
          <path class="cls-4" d="m69.93,72.18c-.58,0-1.15-.22-1.59-.66L28.33,31.53c-.88-.88-.88-2.31,0-3.19.88-.88,2.31-.88,3.19,0l40.01,39.99c.88.88.88,2.31,0,3.19-.44.44-1.02.66-1.59.66Z"/>
          <path class="cls-4" d="m6.44,119.87c-.99,0-1.91-.66-2.18-1.67-.32-1.2.39-2.44,1.59-2.76l54.64-14.65c1.2-.32,2.44.39,2.76,1.59.32,1.2-.39,2.44-1.59,2.76l-54.64,14.65c-.2.05-.39.08-.59.08Z"/>
          <path class="cls-4" d="m70.65,184.05c-.19,0-.39-.03-.58-.08-1.2-.32-1.92-1.56-1.59-2.76l14.63-54.64c.32-1.2,1.56-1.92,2.76-1.59,1.2.32,1.92,1.56,1.59,2.76l-14.63,54.64c-.27,1.01-1.18,1.67-2.18,1.67Z"/>
          <path class="cls-4" d="m158.32,160.54c-.58,0-1.15-.22-1.59-.66l-40.01-39.99c-.88-.88-.88-2.31,0-3.19.88-.88,2.31-.88,3.19,0l40.01,39.99c.88.88.88,2.31,0,3.19-.44.44-1.02.66-1.59.66Z"/>
          <path class="cls-4" d="m127.16,87.5c-.99,0-1.91-.66-2.18-1.67-.32-1.2.39-2.44,1.59-2.76l54.64-14.65c1.2-.32,2.44.39,2.76,1.59.32,1.2-.39,2.44-1.59,2.76l-54.64,14.65c-.2.05-.39.08-.59.08Z"/>
        </g>
        <path class="cls-2" d="m94.13,115.92c-12.02,0-21.8-9.78-21.8-21.8s9.78-21.8,21.8-21.8,21.8,9.78,21.8,21.8-9.78,21.8-21.8,21.8Zm0-37.97c-8.92,0-16.17,7.25-16.17,16.17s7.25,16.17,16.17,16.17,16.17-7.25,16.17-16.17-7.25-16.17-16.17-16.17Z"/>
      </g>
      <path class="cls-1" d="m39.59,77.92c0,3.22-2.61,5.82-5.82,5.82s-5.82-2.61-5.82-5.82,2.61-5.82,5.82-5.82,5.82,2.61,5.82,5.82Z"/>
      <path class="cls-4" d="m116.11,158.29c0,3.22-2.61,5.82-5.82,5.82s-5.82-2.61-5.82-5.82,2.61-5.82,5.82-5.82,5.82,2.61,5.82,5.82Z"/>
      <path class="cls-1" d="m166.13,111.21c0,3.22-2.61,5.82-5.82,5.82s-5.82-2.61-5.82-5.82,2.61-5.82,5.82-5.82,5.82,2.61,5.82,5.82Z"/>
      <path class="cls-1" d="m151.16,41.86c0,3.22-2.61,5.82-5.82,5.82s-5.82-2.61-5.82-5.82,2.61-5.82,5.82-5.82,5.82,2.61,5.82,5.82Z"/>
      <path class="cls-1" d="m40.46,150.22c0,2.44-1.97,4.41-4.41,4.41s-4.41-1.97-4.41-4.41,1.97-4.41,4.41-4.41,4.41,1.97,4.41,4.41Z"/>
      <path class="cls-1" d="m53.15,138.29c0,2.44-1.97,4.41-4.41,4.41s-4.41-1.97-4.41-4.41,1.97-4.41,4.41-4.41,4.41,1.97,4.41,4.41Z"/>
      <path class="cls-1" d="m84.25,37.45c0,2.44-1.97,4.41-4.41,4.41s-4.41-1.97-4.41-4.41,1.97-4.41,4.41-4.41,4.41,1.97,4.41,4.41Z"/>
      <path class="cls-4" d="m78.9,19.91c0,2.44-1.97,4.41-4.41,4.41s-4.41-1.97-4.41-4.41,1.97-4.41,4.41-4.41,4.41,1.97,4.41,4.41Z"/>
    </g>
  </g>
</svg>