<?xml version="1.0" encoding="UTF-8"?>
<svg id="Layer_2" data-name="Layer 2" xmlns="http://www.w3.org/2000/svg" xmlns:xlink="http://www.w3.org/1999/xlink" viewBox="0 0 90.04 178.82">
  <defs>
    <style>
      .cls-1 {
        fill: none;
      }

      .cls-1, .cls-2, .cls-3, .cls-4, .cls-5, .cls-6, .cls-7 {
        stroke-width: 0px;
      }

      .cls-2 {
        fill: #c90;
      }

      .cls-3 {
        fill: #fff;
      }

      .cls-4 {
        fill: #231f20;
      }

      .cls-5 {
        fill: url(#_6_dpi_30_);
      }

      .cls-6 {
        fill: #ceb15f;
      }

      .cls-7 {
        fill: #006837;
      }
    </style>
    <pattern id="_6_dpi_30_" data-name="6 dpi 30%" x="0" y="0" width="48" height="48" patternTransform="translate(-5158.19 -2982.27) rotate(-135) scale(.41 -.41)" patternUnits="userSpaceOnUse" viewBox="0 0 48 48">
      <g>
        <rect class="cls-1" y="0" width="48" height="48"/>
        <g>
          <circle class="cls-4" cx="24" cy="48" r="3.6"/>
          <circle class="cls-4" cx="48" cy="48" r="3.6"/>
          <circle class="cls-4" cx="24" cy="24" r="3.6"/>
          <circle class="cls-4" cx="48" cy="24" r="3.6"/>
          <circle class="cls-4" cx="36" cy="36" r="3.6"/>
          <circle class="cls-4" cx="12" cy="36" r="3.6"/>
          <circle class="cls-4" cx="36" cy="12" r="3.6"/>
          <circle class="cls-4" cx="12" cy="12" r="3.6"/>
        </g>
        <g>
          <circle class="cls-4" cy="48" r="3.6"/>
          <circle class="cls-4" cy="24" r="3.6"/>
        </g>
        <g>
          <circle class="cls-4" cx="24" cy="0" r="3.6"/>
          <circle class="cls-4" cx="48" cy="0" r="3.6"/>
        </g>
        <circle class="cls-4" cy="0" r="3.6"/>
      </g>
    </pattern>
  </defs>
  <g id="Object">
    <g>
      <path class="cls-6" d="m86.19,121.81c0,22.74-18.43,57.01-41.17,57.01S3.85,144.55,3.85,121.81s18.43-41.17,41.17-41.17,41.17,18.43,41.17,41.17Z"/>
      <g>
        <path class="cls-2" d="m13.66,131.29c4.41,0,8.27-3.33,10.38-8.31,2.11,4.97,5.97,8.31,10.38,8.31s8.27-3.33,10.38-8.31c2.11,4.97,5.97,8.31,10.38,8.31s8.27-3.33,10.38-8.31c2.11,4.97,5.97,8.31,10.38,8.31,6.68,0,12.09-7.63,12.09-17.05H1.57c0,9.42,5.41,17.05,12.09,17.05Z"/>
        <path class="cls-2" d="m62.96,135.8H4.3c0,8.87,5.1,16.06,11.39,16.06,4.15,0,7.79-3.14,9.78-7.82,1.99,4.68,5.62,7.82,9.78,7.82s7.79-3.14,9.78-7.82c1.99,4.68,5.62,7.82,9.78,7.82s7.79-3.14,9.78-7.82c1.99,4.68,5.62,7.82,9.78,7.82,6.29,0,11.39-7.19,11.39-16.06h-22.77Z"/>
        <path class="cls-2" d="m53.2,156.16H14.78c0,8.71,5.01,15.77,11.19,15.77,4.08,0,7.65-3.08,9.6-7.68,1.95,4.6,5.52,7.68,9.6,7.68s7.65-3.08,9.6-7.68c1.95,4.6,5.52,7.68,9.6,7.68,6.18,0,11.19-7.06,11.19-15.77h-22.37Z"/>
      </g>
      <path class="cls-2" d="m45.02,67.37c-23.54,0-42.62,19.08-42.62,42.62h85.24c0-23.54-19.08-42.62-42.62-42.62Z"/>
      <path class="cls-3" d="m47.93,75.8l27.25,27.25c0-15.05-12.2-27.25-27.25-27.25Z"/>
      <path class="cls-5" d="m45.18,67.37c-.05,0-.11,0-.16,0-23.54,0-42.62,19.08-42.62,42.62h42.78v-42.62Z"/>
      <path class="cls-7" d="m82.61,46.55c-3.09-2.26-6.92-3.51-10.77-3.51-1.34,0-2.68.15-3.98.44-5.28,1.2-8.95,4.89-12.2,8.15-.29.3-.59.59-.88.89-3.02,3-6.13,5.98-9.15,8.85-.2.19-.41.39-.61.58-.2-.19-.41-.39-.61-.58-3.02-2.88-6.13-5.85-9.15-8.85-.29-.29-.59-.59-.88-.89-3.24-3.26-6.92-6.96-12.2-8.15-1.3-.29-2.64-.44-3.98-.44-3.85,0-7.67,1.24-10.77,3.5-8.1,5.92-9.86,17.35-3.91,25.5,3.41,4.68,8.88,7.36,15,7.36,3.45,0,6.93-.84,10.1-2.45l.3-.15c1.42-.72,2.9-1.44,4.33-2.12,1.63-.79,3.31-1.6,4.96-2.44,1.11-.57,2.19-1.22,3.23-1.86,1.24-.75,2.43-1.47,3.58-2.01,1.15.54,2.34,1.25,3.58,2.01,1.04.63,2.12,1.29,3.23,1.86,1.65.85,3.33,1.66,4.96,2.45,1.43.69,2.9,1.41,4.33,2.13l.32.18c3.15,1.59,6.63,2.48,10.08,2.48h0c6.12,0,11.59-2.72,15-7.4,5.95-8.14,4.19-19.62-3.91-25.54Zm-46.82,20.99c-1.59.82-3.24,1.61-4.83,2.38-1.45.7-2.95,1.42-4.42,2.17l-.31.16c-2.41,1.22-5.07,1.87-7.69,1.87-4.48,0-8.29-1.84-10.74-5.19-4.23-5.79-2.99-13.92,2.76-18.11,2.2-1.6,4.92-2.49,7.65-2.49.95,0,1.89.11,2.81.31,3.78.86,6.61,3.71,9.62,6.73.3.3.6.61.9.9,2.93,2.92,5.94,5.8,8.86,8.58-.57.33-1.14.67-1.69,1.01-1.01.61-1.97,1.19-2.91,1.68Zm46.46,1.43c-2.44,3.35-6.26,5.23-10.74,5.23h0c-2.62,0-5.28-.69-7.71-1.91l-.29-.19c-1.47-.75-2.97-1.47-4.42-2.17-1.6-.77-3.25-1.57-4.83-2.38-.94-.49-1.9-1.06-2.91-1.68-.56-.34-1.12-.68-1.69-1.01,2.92-2.78,5.93-5.66,8.86-8.58.3-.3.6-.6.9-.9,3-3.02,5.83-5.87,9.62-6.72.92-.21,1.86-.31,2.81-.31,2.74,0,5.46.89,7.65,2.5,5.75,4.2,6.99,12.34,2.76,18.13Z"/>
      <path class="cls-2" d="m45.18,55.88c-1.4,0-2.54-1.14-2.54-2.54V2.54c0-1.4,1.14-2.54,2.54-2.54s2.54,1.14,2.54,2.54v50.81c0,1.4-1.14,2.54-2.54,2.54Z"/>
    </g>
  </g>
</svg>