<?xml version="1.0" encoding="UTF-8"?>
<svg id="Layer_2" data-name="Layer 2" xmlns="http://www.w3.org/2000/svg" xmlns:xlink="http://www.w3.org/1999/xlink" viewBox="0 0 101.43 154.11">
  <defs>
    <style>
      .cls-1 {
        fill: #c1272d;
      }

      .cls-1, .cls-2, .cls-3, .cls-4, .cls-5, .cls-6, .cls-7, .cls-8 {
        stroke-width: 0px;
      }

      .cls-2 {
        fill: none;
      }

      .cls-3 {
        fill: #fff;
      }

      .cls-4 {
        fill: #231f20;
      }

      .cls-5 {
        fill: url(#_6_dpi_30_);
      }

      .cls-6 {
        fill: #ceb15f;
      }

      .cls-7 {
        fill: #006837;
      }

      .cls-8 {
        fill: #004e29;
      }
    </style>
    <pattern id="_6_dpi_30_" data-name="6 dpi 30%" x="0" y="0" width="48" height="48" patternTransform="translate(-5159.06 -3221.47) rotate(-135) scale(.41 -.41)" patternUnits="userSpaceOnUse" viewBox="0 0 48 48">
      <g>
        <rect class="cls-2" y="0" width="48" height="48"/>
        <g>
          <circle class="cls-4" cx="24" cy="48" r="3.6"/>
          <circle class="cls-4" cx="48" cy="48" r="3.6"/>
          <circle class="cls-4" cx="24" cy="24" r="3.6"/>
          <circle class="cls-4" cx="48" cy="24" r="3.6"/>
          <circle class="cls-4" cx="36" cy="36" r="3.6"/>
          <circle class="cls-4" cx="12" cy="36" r="3.6"/>
          <circle class="cls-4" cx="36" cy="12" r="3.6"/>
          <circle class="cls-4" cx="12" cy="12" r="3.6"/>
        </g>
        <g>
          <circle class="cls-4" cy="48" r="3.6"/>
          <circle class="cls-4" cy="24" r="3.6"/>
        </g>
        <g>
          <circle class="cls-4" cx="24" cy="0" r="3.6"/>
          <circle class="cls-4" cx="48" cy="0" r="3.6"/>
        </g>
        <circle class="cls-4" cy="0" r="3.6"/>
      </g>
    </pattern>
  </defs>
  <g id="Object">
    <g>
      <rect class="cls-7" y="35.81" width="101.43" height="118.3"/>
      <polygon class="cls-8" points="0 32.8 79.55 0 79.55 32.8 0 32.8"/>
      <path class="cls-6" d="m45.86,58.63l-6.45-3.72,6.04-3.49c.54-.31.72-1,.41-1.54-.31-.54-1-.72-1.54-.41l-6.04,3.49v-7.45c0-.62-.5-1.13-1.13-1.13s-1.13.5-1.13,1.13v7.45l-6.04-3.49c-.54-.31-1.23-.13-1.54.41-.31.54-.13,1.23.41,1.54l6.04,3.49-6.45,3.72c-.54.31-.72,1-.41,1.54.21.36.59.56.98.56.19,0,.39-.05.56-.15l6.45-3.72v6.97c0,.62.5,1.13,1.13,1.13s1.13-.5,1.13-1.13v-6.97l6.45,3.72c.18.1.37.15.56.15.39,0,.77-.2.98-.56.31-.54.13-1.23-.41-1.54Z"/>
      <path class="cls-6" d="m90.16,135.02l-6.45-3.72,6.04-3.49c.54-.31.72-1,.41-1.54-.31-.54-1-.72-1.54-.41l-6.04,3.49v-7.45c0-.62-.5-1.13-1.13-1.13s-1.13.5-1.13,1.13v7.45l-6.04-3.49c-.54-.31-1.23-.13-1.54.41-.31.54-.13,1.23.41,1.54l6.04,3.49-6.45,3.72c-.54.31-.72,1-.41,1.54.21.36.59.56.98.56.19,0,.39-.05.56-.15l6.45-3.72v6.97c0,.62.5,1.13,1.13,1.13s1.13-.5,1.13-1.13v-6.97l6.45,3.72c.18.1.37.15.56.15.39,0,.77-.2.98-.56.31-.54.13-1.23-.41-1.54Z"/>
      <path class="cls-3" d="m90.16,68.92l-6.45-3.72,6.04-3.49c.54-.31.72-1,.41-1.54-.31-.54-1-.72-1.54-.41l-6.04,3.49v-7.45c0-.62-.5-1.13-1.13-1.13s-1.13.5-1.13,1.13v7.45l-6.04-3.49c-.54-.31-1.23-.13-1.54.41-.31.54-.13,1.23.41,1.54l6.04,3.49-6.45,3.72c-.54.31-.72,1-.41,1.54.21.36.59.56.98.56.19,0,.39-.05.56-.15l6.45-3.72v6.97c0,.62.5,1.13,1.13,1.13s1.13-.5,1.13-1.13v-6.97l6.45,3.72c.18.1.37.15.56.15.39,0,.77-.2.98-.56.31-.54.13-1.23-.41-1.54Z"/>
      <path class="cls-3" d="m40.55,135.02l-6.45-3.72,6.04-3.49c.54-.31.72-1,.41-1.54-.31-.54-1-.72-1.54-.41l-6.04,3.49v-7.45c0-.62-.5-1.13-1.13-1.13s-1.13.5-1.13,1.13v7.45l-6.04-3.49c-.54-.31-1.23-.13-1.54.41-.31.54-.13,1.23.41,1.54l6.04,3.49-6.45,3.72c-.54.31-.72,1-.41,1.54.21.36.59.56.98.56.19,0,.39-.05.56-.15l6.45-3.72v6.97c0,.62.5,1.13,1.13,1.13s1.13-.5,1.13-1.13v-6.97l6.45,3.72c.18.1.37.15.56.15.39,0,.77-.2.98-.56.31-.54.13-1.23-.41-1.54Z"/>
      <path class="cls-6" d="m23.86,102.41l-6.45-3.72,6.04-3.49c.54-.31.72-1,.41-1.54-.31-.54-1-.72-1.54-.41l-6.04,3.49v-7.45c0-.62-.5-1.13-1.13-1.13s-1.13.5-1.13,1.13v7.45l-6.04-3.49c-.54-.31-1.23-.13-1.54.41-.31.54-.13,1.23.41,1.54l6.04,3.49-6.45,3.72c-.54.31-.72,1-.41,1.54.21.36.59.56.98.56.19,0,.39-.05.56-.15l6.45-3.72v6.97c0,.62.5,1.13,1.13,1.13s1.13-.5,1.13-1.13v-6.97l6.45,3.72c.18.1.37.15.56.15.39,0,.77-.2.98-.56.31-.54.13-1.23-.41-1.54Z"/>
      <path class="cls-1" d="m72.36,87.92c0-6.02-4.88-11.54-10.9-11.54-3.9,0-7.32,2.68-9.24,5.76-1.93-3.08-5.35-5.76-9.24-5.76-6.02,0-10.9,5.51-10.9,11.54,0,.03,0,.06,0,.1-.04,1.31.04,15.89,20.15,25.51h0s0,0,0,0c0,0,0,0,0,0h0c21.07-10.08,20.14-25.61,20.14-25.61Z"/>
      <polygon class="cls-5" points="0 32.8 79.55 0 79.55 32.8 0 32.8"/>
    </g>
  </g>
</svg>