<?xml version="1.0" encoding="UTF-8"?>
<svg id="Layer_2" data-name="Layer 2" xmlns="http://www.w3.org/2000/svg" xmlns:xlink="http://www.w3.org/1999/xlink" viewBox="0 0 209.09 107.49">
  <defs>
    <style>
      .cls-1 {
        fill: #c1272d;
      }

      .cls-1, .cls-2, .cls-3, .cls-4, .cls-5, .cls-6, .cls-7, .cls-8 {
        stroke-width: 0px;
      }

      .cls-2 {
        fill: none;
      }

      .cls-3 {
        fill: #c90;
      }

      .cls-4 {
        fill: #fff;
      }

      .cls-5 {
        fill: #231f20;
      }

      .cls-6 {
        fill: url(#_6_dpi_30_);
      }

      .cls-7 {
        fill: #d1d3d4;
      }

      .cls-8 {
        fill: #ceb15f;
      }
    </style>
    <pattern id="_6_dpi_30_" data-name="6 dpi 30%" x="0" y="0" width="48" height="48" patternTransform="translate(-4880.34 -3249.82) rotate(-135) scale(.41 -.41)" patternUnits="userSpaceOnUse" viewBox="0 0 48 48">
      <g>
        <rect class="cls-2" y="0" width="48" height="48"/>
        <g>
          <circle class="cls-5" cx="24" cy="48" r="3.6"/>
          <circle class="cls-5" cx="48" cy="48" r="3.6"/>
          <circle class="cls-5" cx="24" cy="24" r="3.6"/>
          <circle class="cls-5" cx="48" cy="24" r="3.6"/>
          <circle class="cls-5" cx="36" cy="36" r="3.6"/>
          <circle class="cls-5" cx="12" cy="36" r="3.6"/>
          <circle class="cls-5" cx="36" cy="12" r="3.6"/>
          <circle class="cls-5" cx="12" cy="12" r="3.6"/>
        </g>
        <g>
          <circle class="cls-5" cy="48" r="3.6"/>
          <circle class="cls-5" cy="24" r="3.6"/>
        </g>
        <g>
          <circle class="cls-5" cx="24" cy="0" r="3.6"/>
          <circle class="cls-5" cx="48" cy="0" r="3.6"/>
        </g>
        <circle class="cls-5" cy="0" r="3.6"/>
      </g>
    </pattern>
  </defs>
  <g id="Object">
    <g>
      <g>
        <path class="cls-1" d="m95.69,54.33c-4.96-4.27-12.44-3.72-16.71,1.24l-4.88,5.67v-26.57C74.1,15.52,58.57,0,39.43,0S4.75,15.52,4.75,34.67v63.01h69.35v-.15l22.84-26.49c4.27-4.96,3.72-12.44-1.24-16.71Z"/>
        <path class="cls-8" d="m83,98.96c0,4.71-3.82,8.53-8.53,8.53H8.53c-4.71,0-8.53-3.82-8.53-8.53h0c0-4.71,3.82-8.53,8.53-8.53h65.94c4.71,0,8.53,3.82,8.53,8.53h0Z"/>
        <g>
          <path class="cls-3" d="m8.6,30.4h-1.46c-.62,0-1.12-.5-1.12-1.12s.5-1.12,1.12-1.12h1.46c.62,0,1.12.5,1.12,1.12s-.5,1.12-1.12,1.12Z"/>
          <path class="cls-3" d="m64.32,30.4h-2.81c-.62,0-1.12-.5-1.12-1.12s.5-1.12,1.12-1.12h2.81c.62,0,1.12.5,1.12,1.12s-.5,1.12-1.12,1.12Zm-7.96,0h-2.81c-.62,0-1.12-.5-1.12-1.12s.5-1.12,1.12-1.12h2.81c.62,0,1.12.5,1.12,1.12s-.5,1.12-1.12,1.12Zm-7.96,0h-2.81c-.62,0-1.12-.5-1.12-1.12s.5-1.12,1.12-1.12h2.81c.62,0,1.12.5,1.12,1.12s-.5,1.12-1.12,1.12Zm-7.96,0h-2.81c-.62,0-1.12-.5-1.12-1.12s.5-1.12,1.12-1.12h2.81c.62,0,1.12.5,1.12,1.12s-.5,1.12-1.12,1.12Zm-7.96,0h-2.81c-.62,0-1.12-.5-1.12-1.12s.5-1.12,1.12-1.12h2.81c.62,0,1.12.5,1.12,1.12s-.5,1.12-1.12,1.12Zm-7.96,0h-2.81c-.62,0-1.12-.5-1.12-1.12s.5-1.12,1.12-1.12h2.81c.62,0,1.12.5,1.12,1.12s-.5,1.12-1.12,1.12Zm-7.96,0h-2.81c-.62,0-1.12-.5-1.12-1.12s.5-1.12,1.12-1.12h2.81c.62,0,1.12.5,1.12,1.12s-.5,1.12-1.12,1.12Z"/>
          <path class="cls-3" d="m70.92,30.4h-1.46c-.62,0-1.12-.5-1.12-1.12s.5-1.12,1.12-1.12h1.46c.62,0,1.12.5,1.12,1.12s-.5,1.12-1.12,1.12Z"/>
        </g>
        <g>
          <path class="cls-4" d="m8.86,69.67h-1.72c-.92,0-1.66-.74-1.66-1.66s.74-1.66,1.66-1.66h1.72c.92,0,1.66.74,1.66,1.66s-.74,1.66-1.66,1.66Z"/>
          <path class="cls-4" d="m87.63,69.67h-3.47c-.92,0-1.66-.74-1.66-1.66s.74-1.66,1.66-1.66h3.47c.92,0,1.66.74,1.66,1.66s-.74,1.66-1.66,1.66Zm-9.85,0h-3.47c-.92,0-1.66-.74-1.66-1.66s.74-1.66,1.66-1.66h3.47c.92,0,1.66.74,1.66,1.66s-.74,1.66-1.66,1.66Zm-9.85,0h-3.47c-.92,0-1.66-.74-1.66-1.66s.74-1.66,1.66-1.66h3.47c.92,0,1.66.74,1.66,1.66s-.74,1.66-1.66,1.66Zm-9.85,0h-3.47c-.92,0-1.66-.74-1.66-1.66s.74-1.66,1.66-1.66h3.47c.92,0,1.66.74,1.66,1.66s-.74,1.66-1.66,1.66Zm-9.85,0h-3.47c-.92,0-1.66-.74-1.66-1.66s.74-1.66,1.66-1.66h3.47c.92,0,1.66.74,1.66,1.66s-.74,1.66-1.66,1.66Zm-9.85,0h-3.47c-.92,0-1.66-.74-1.66-1.66s.74-1.66,1.66-1.66h3.47c.92,0,1.66.74,1.66,1.66s-.74,1.66-1.66,1.66Zm-9.85,0h-3.47c-.92,0-1.66-.74-1.66-1.66s.74-1.66,1.66-1.66h3.47c.92,0,1.66.74,1.66,1.66s-.74,1.66-1.66,1.66Zm-9.85,0h-3.47c-.92,0-1.66-.74-1.66-1.66s.74-1.66,1.66-1.66h3.47c.92,0,1.66.74,1.66,1.66s-.74,1.66-1.66,1.66Z"/>
          <path class="cls-4" d="m95.72,69.67h-1.72c-.92,0-1.66-.74-1.66-1.66s.74-1.66,1.66-1.66h1.72c.92,0,1.66.74,1.66,1.66s-.74,1.66-1.66,1.66Z"/>
        </g>
        <g>
          <path class="cls-7" d="m14.42,54.55c0,1.91-1.55,3.46-3.46,3.46s-3.46-1.55-3.46-3.46,1.55-3.46,3.46-3.46,3.46,1.55,3.46,3.46Z"/>
          <path class="cls-7" d="m25.72,54.55c0,1.91-1.55,3.46-3.46,3.46s-3.46-1.55-3.46-3.46,1.55-3.46,3.46-3.46,3.46,1.55,3.46,3.46Z"/>
          <path class="cls-7" d="m37.02,54.55c0,1.91-1.55,3.46-3.46,3.46s-3.46-1.55-3.46-3.46,1.55-3.46,3.46-3.46,3.46,1.55,3.46,3.46Z"/>
          <path class="cls-7" d="m48.32,54.55c0,1.91-1.55,3.46-3.46,3.46s-3.46-1.55-3.46-3.46,1.55-3.46,3.46-3.46,3.46,1.55,3.46,3.46Z"/>
          <path class="cls-7" d="m59.62,54.55c0,1.91-1.55,3.46-3.46,3.46s-3.46-1.55-3.46-3.46,1.55-3.46,3.46-3.46,3.46,1.55,3.46,3.46Z"/>
          <circle class="cls-7" cx="67.46" cy="54.55" r="3.46"/>
        </g>
        <path class="cls-3" d="m0,98.96c0,4.71,3.82,8.53,8.53,8.53h65.94c4.71,0,8.53-3.82,8.53-8.53H0Z"/>
        <rect class="cls-6" x="8.01" y="34.97" width="61.04" height="11.92"/>
      </g>
      <g>
        <path class="cls-1" d="m113.39,54.33c4.96-4.27,12.44-3.72,16.71,1.24l4.88,5.67v-26.57c0-19.15,15.52-34.67,34.67-34.67s34.67,15.52,34.67,34.67v63.01h-69.35v-.15l-22.84-26.49c-4.27-4.96-3.72-12.44,1.24-16.71Z"/>
        <path class="cls-8" d="m126.09,98.96c0,4.71,3.82,8.53,8.53,8.53h65.94c4.71,0,8.53-3.82,8.53-8.53h0c0-4.71-3.82-8.53-8.53-8.53h-65.94c-4.71,0-8.53,3.82-8.53,8.53h0Z"/>
        <g>
          <path class="cls-3" d="m201.94,30.4h-1.46c-.62,0-1.12-.5-1.12-1.12s.5-1.12,1.12-1.12h1.46c.62,0,1.12.5,1.12,1.12s-.5,1.12-1.12,1.12Z"/>
          <path class="cls-3" d="m195.33,30.4h-2.81c-.62,0-1.12-.5-1.12-1.12s.5-1.12,1.12-1.12h2.81c.62,0,1.12.5,1.12,1.12s-.5,1.12-1.12,1.12Zm-7.96,0h-2.81c-.62,0-1.12-.5-1.12-1.12s.5-1.12,1.12-1.12h2.81c.62,0,1.12.5,1.12,1.12s-.5,1.12-1.12,1.12Zm-7.96,0h-2.81c-.62,0-1.12-.5-1.12-1.12s.5-1.12,1.12-1.12h2.81c.62,0,1.12.5,1.12,1.12s-.5,1.12-1.12,1.12Zm-7.96,0h-2.81c-.62,0-1.12-.5-1.12-1.12s.5-1.12,1.12-1.12h2.81c.62,0,1.12.5,1.12,1.12s-.5,1.12-1.12,1.12Zm-7.96,0h-2.81c-.62,0-1.12-.5-1.12-1.12s.5-1.12,1.12-1.12h2.81c.62,0,1.12.5,1.12,1.12s-.5,1.12-1.12,1.12Zm-7.96,0h-2.81c-.62,0-1.12-.5-1.12-1.12s.5-1.12,1.12-1.12h2.81c.62,0,1.12.5,1.12,1.12s-.5,1.12-1.12,1.12Zm-7.96,0h-2.81c-.62,0-1.12-.5-1.12-1.12s.5-1.12,1.12-1.12h2.81c.62,0,1.12.5,1.12,1.12s-.5,1.12-1.12,1.12Z"/>
          <path class="cls-3" d="m139.62,30.4h-1.46c-.62,0-1.12-.5-1.12-1.12s.5-1.12,1.12-1.12h1.46c.62,0,1.12.5,1.12,1.12s-.5,1.12-1.12,1.12Z"/>
        </g>
        <g>
          <path class="cls-4" d="m201.94,69.67h-1.72c-.92,0-1.66-.74-1.66-1.66s.74-1.66,1.66-1.66h1.72c.92,0,1.66.74,1.66,1.66s-.74,1.66-1.66,1.66Z"/>
          <path class="cls-4" d="m193.85,69.67h-3.47c-.92,0-1.66-.74-1.66-1.66s.74-1.66,1.66-1.66h3.47c.92,0,1.66.74,1.66,1.66s-.74,1.66-1.66,1.66Zm-9.85,0h-3.47c-.92,0-1.66-.74-1.66-1.66s.74-1.66,1.66-1.66h3.47c.92,0,1.66.74,1.66,1.66s-.74,1.66-1.66,1.66Zm-9.85,0h-3.47c-.92,0-1.66-.74-1.66-1.66s.74-1.66,1.66-1.66h3.47c.92,0,1.66.74,1.66,1.66s-.74,1.66-1.66,1.66Zm-9.85,0h-3.47c-.92,0-1.66-.74-1.66-1.66s.74-1.66,1.66-1.66h3.47c.92,0,1.66.74,1.66,1.66s-.74,1.66-1.66,1.66Zm-9.85,0h-3.47c-.92,0-1.66-.74-1.66-1.66s.74-1.66,1.66-1.66h3.47c.92,0,1.66.74,1.66,1.66s-.74,1.66-1.66,1.66Zm-9.85,0h-3.47c-.92,0-1.66-.74-1.66-1.66s.74-1.66,1.66-1.66h3.47c.92,0,1.66.74,1.66,1.66s-.74,1.66-1.66,1.66Zm-9.85,0h-3.47c-.92,0-1.66-.74-1.66-1.66s.74-1.66,1.66-1.66h3.47c.92,0,1.66.74,1.66,1.66s-.74,1.66-1.66,1.66Zm-9.85,0h-3.48c-.92,0-1.66-.74-1.66-1.66s.74-1.66,1.66-1.66h3.48c.92,0,1.66.74,1.66,1.66s-.74,1.66-1.66,1.66Z"/>
          <path class="cls-4" d="m115.09,69.67h-1.72c-.92,0-1.66-.74-1.66-1.66s.74-1.66,1.66-1.66h1.72c.92,0,1.66.74,1.66,1.66s-.74,1.66-1.66,1.66Z"/>
        </g>
        <g>
          <path class="cls-7" d="m194.67,54.55c0,1.91,1.55,3.46,3.46,3.46s3.46-1.55,3.46-3.46-1.55-3.46-3.46-3.46-3.46,1.55-3.46,3.46Z"/>
          <path class="cls-7" d="m183.37,54.55c0,1.91,1.55,3.46,3.46,3.46s3.46-1.55,3.46-3.46-1.55-3.46-3.46-3.46-3.46,1.55-3.46,3.46Z"/>
          <path class="cls-7" d="m172.07,54.55c0,1.91,1.55,3.46,3.46,3.46s3.46-1.55,3.46-3.46-1.55-3.46-3.46-3.46-3.46,1.55-3.46,3.46Z"/>
          <path class="cls-7" d="m160.77,54.55c0,1.91,1.55,3.46,3.46,3.46s3.46-1.55,3.46-3.46-1.55-3.46-3.46-3.46-3.46,1.55-3.46,3.46Z"/>
          <path class="cls-7" d="m149.46,54.55c0,1.91,1.55,3.46,3.46,3.46s3.46-1.55,3.46-3.46-1.55-3.46-3.46-3.46-3.46,1.55-3.46,3.46Z"/>
          <path class="cls-7" d="m138.16,54.55c0,1.91,1.55,3.46,3.46,3.46s3.46-1.55,3.46-3.46-1.55-3.46-3.46-3.46-3.46,1.55-3.46,3.46Z"/>
        </g>
        <path class="cls-3" d="m209.09,98.96c0,4.71-3.82,8.53-8.53,8.53h-65.94c-4.71,0-8.53-3.82-8.53-8.53h83Z"/>
        <rect class="cls-6" x="139.53" y="34.97" width="61.04" height="11.92"/>
      </g>
    </g>
  </g>
</svg>