<?xml version="1.0" encoding="UTF-8"?>
<svg id="Layer_2" data-name="Layer 2" xmlns="http://www.w3.org/2000/svg" xmlns:xlink="http://www.w3.org/1999/xlink" viewBox="0 0 89.21 150.85">
  <defs>
    <style>
      .cls-1 {
        fill: #c1272d;
      }

      .cls-1, .cls-2, .cls-3, .cls-4, .cls-5, .cls-6 {
        stroke-width: 0px;
      }

      .cls-2 {
        fill: none;
      }

      .cls-3 {
        fill: #fff;
      }

      .cls-4 {
        fill: #231f20;
      }

      .cls-5 {
        fill: url(#_6_dpi_30_);
      }

      .cls-6 {
        fill: #911d22;
      }
    </style>
    <pattern id="_6_dpi_30_" data-name="6 dpi 30%" x="0" y="0" width="48" height="48" patternTransform="translate(-5577.19 -2783.33) rotate(-135) scale(.41 -.41)" patternUnits="userSpaceOnUse" viewBox="0 0 48 48">
      <g>
        <rect class="cls-2" y="0" width="48" height="48"/>
        <g>
          <circle class="cls-4" cx="24" cy="48" r="3.6"/>
          <circle class="cls-4" cx="48" cy="48" r="3.6"/>
          <circle class="cls-4" cx="24" cy="24" r="3.6"/>
          <circle class="cls-4" cx="48" cy="24" r="3.6"/>
          <circle class="cls-4" cx="36" cy="36" r="3.6"/>
          <circle class="cls-4" cx="12" cy="36" r="3.6"/>
          <circle class="cls-4" cx="36" cy="12" r="3.6"/>
          <circle class="cls-4" cx="12" cy="12" r="3.6"/>
        </g>
        <g>
          <circle class="cls-4" cy="48" r="3.6"/>
          <circle class="cls-4" cy="24" r="3.6"/>
        </g>
        <g>
          <circle class="cls-4" cx="24" cy="0" r="3.6"/>
          <circle class="cls-4" cx="48" cy="0" r="3.6"/>
        </g>
        <circle class="cls-4" cy="0" r="3.6"/>
      </g>
    </pattern>
  </defs>
  <g id="Object">
    <g>
      <path class="cls-1" d="m44.61,0C20.01,0,0,20.01,0,44.61c0,8.66,7.04,15.7,15.7,15.7s15.7-7.04,15.7-15.7c0-7.28,5.92-13.2,13.2-13.2s13.2,5.92,13.2,13.2v90.54c0,8.66,7.04,15.7,15.7,15.7s15.7-7.04,15.7-15.7V44.61C89.21,20.01,69.2,0,44.61,0Z"/>
      <g>
        <path class="cls-5" d="m79.95,29.25c-2.29-5.24-5.7-9.88-9.94-13.6l-9.39,18.25c2.06,3.06,3.26,6.75,3.26,10.71v.59l15.52-15.52c.17-.17.36-.31.56-.42Z"/>
        <path class="cls-6" d="m7.33,34.8c-.82,3.13-1.26,6.42-1.26,9.8,0,5.32,4.31,9.64,9.64,9.64s9.64-4.31,9.64-9.64c0-1.27.13-2.52.36-3.73-.05-.01-.1-.02-.15-.04l-18.23-6.04Z"/>
        <path class="cls-5" d="m19.25,15.61c-4.39,3.84-7.91,8.67-10.2,14.13l18.19,6.03c.07.02.14.05.21.08,1.12-2.19,2.65-4.13,4.48-5.74l-12.63-14.43s-.04-.05-.06-.07Z"/>
        <path class="cls-6" d="m65.7,12.37c-5.36-3.52-11.65-5.74-18.42-6.21v19.18c0,.06,0,.13,0,.19,3.57.5,6.83,1.97,9.49,4.15l8.74-16.99c.06-.11.13-.22.2-.32Z"/>
        <path class="cls-5" d="m64.28,137.94c1.2,3.96,4.87,6.85,9.23,6.85,5.32,0,9.64-4.31,9.64-9.64v-16.01l-18.48,18.48c-.12.12-.25.23-.39.32Z"/>
        <path class="cls-6" d="m64.67,95.52c-.24.24-.51.42-.8.55v13.73l18.42-18.42c.25-.25.54-.44.85-.57v-13.76l-18.48,18.48Z"/>
        <path class="cls-3" d="m63.87,130.84v4.31c0,.97.14,1.9.41,2.79.14-.09.27-.2.39-.32l18.48-18.48v-7.29c-.31.13-.6.32-.85.57l-18.42,18.42Z"/>
        <path class="cls-3" d="m63.87,109.79v7.32c.29-.13.56-.31.8-.55l18.48-18.48v-7.29c-.31.13-.6.32-.85.57l-18.42,18.42Z"/>
        <path class="cls-3" d="m83.14,77.04v-7.29c-.31.13-.6.32-.85.57l-18.42,18.42v7.32c.29-.13.56-.31.8-.55l18.48-18.48Z"/>
        <path class="cls-3" d="m83.14,55.99v-7.29c-.31.13-.6.32-.85.57l-18.42,18.42v7.32c.29-.13.56-.31.8-.55l18.48-18.48Z"/>
        <path class="cls-3" d="m81.87,34.77c-.5-1.9-1.15-3.74-1.92-5.52-.2.11-.39.25-.56.42l-15.52,15.52v7.32c.29-.13.56-.31.8-.55l17.2-17.2Z"/>
        <path class="cls-3" d="m65.7,12.37c-.07.1-.14.21-.2.32l-8.74,16.99c1.48,1.21,2.78,2.63,3.85,4.22l9.39-18.25c-1.35-1.19-2.79-2.28-4.3-3.28Z"/>
        <path class="cls-3" d="m47.28,6.16c-.88-.06-1.78-.09-2.68-.09s-1.79.03-2.68.09v19.18c0,.06,0,.13,0,.19.87-.12,1.76-.19,2.67-.19s1.79.07,2.67.19c0-.06,0-.13,0-.19V6.16Z"/>
        <path class="cls-3" d="m19.25,15.61s.04.05.06.07l12.63,14.43c1.36-1.19,2.88-2.19,4.53-2.96l-12.94-14.79c-1.5.98-2.93,2.07-4.27,3.24Z"/>
        <path class="cls-3" d="m9.05,29.73c-.69,1.64-1.26,3.33-1.72,5.07l18.23,6.04s.1.02.15.04c.35-1.78.95-3.47,1.75-5.03-.07-.03-.14-.06-.21-.08l-18.19-6.03Z"/>
      </g>
    </g>
  </g>
</svg>