<?xml version="1.0" encoding="UTF-8"?>
<svg id="Layer_2" data-name="Layer 2" xmlns="http://www.w3.org/2000/svg" xmlns:xlink="http://www.w3.org/1999/xlink" viewBox="0 0 165.03 160.05">
  <defs>
    <style>
      .cls-1 {
        fill: #58595b;
      }

      .cls-1, .cls-2, .cls-3, .cls-4, .cls-5, .cls-6, .cls-7, .cls-8, .cls-9, .cls-10 {
        stroke-width: 0px;
      }

      .cls-2 {
        fill: none;
      }

      .cls-3 {
        fill: #c90;
      }

      .cls-4 {
        fill: #fff;
      }

      .cls-5 {
        fill: #231f20;
      }

      .cls-6 {
        fill: url(#_6_dpi_30_);
      }

      .cls-7 {
        fill: #bcbec0;
      }

      .cls-8 {
        fill: #d1d3d4;
      }

      .cls-9 {
        fill: #911d22;
      }

      .cls-10 {
        fill: #ceb15f;
      }
    </style>
    <pattern id="_6_dpi_30_" data-name="6 dpi 30%" x="0" y="0" width="48" height="48" patternTransform="translate(-4913.7 -3438.29) rotate(-135) scale(.41 -.41)" patternUnits="userSpaceOnUse" viewBox="0 0 48 48">
      <g>
        <rect class="cls-2" y="0" width="48" height="48"/>
        <g>
          <circle class="cls-5" cx="24" cy="48" r="3.6"/>
          <circle class="cls-5" cx="48" cy="48" r="3.6"/>
          <circle class="cls-5" cx="24" cy="24" r="3.6"/>
          <circle class="cls-5" cx="48" cy="24" r="3.6"/>
          <circle class="cls-5" cx="36" cy="36" r="3.6"/>
          <circle class="cls-5" cx="12" cy="36" r="3.6"/>
          <circle class="cls-5" cx="36" cy="12" r="3.6"/>
          <circle class="cls-5" cx="12" cy="12" r="3.6"/>
        </g>
        <g>
          <circle class="cls-5" cy="48" r="3.6"/>
          <circle class="cls-5" cy="24" r="3.6"/>
        </g>
        <g>
          <circle class="cls-5" cx="24" cy="0" r="3.6"/>
          <circle class="cls-5" cx="48" cy="0" r="3.6"/>
        </g>
        <circle class="cls-5" cy="0" r="3.6"/>
      </g>
    </pattern>
  </defs>
  <g id="Object">
    <g>
      <g>
        <path class="cls-7" d="m9.87,60.03c0,20.64,16.74,37.38,37.38,37.38s37.38-16.74,37.38-37.38H9.87Z"/>
        <path class="cls-4" d="m62.18,66.58H21.49c0,12.52,10.15,22.68,22.68,22.68h0l18.01-22.68Z"/>
        <path class="cls-7" d="m161.76,60.03c0,20.64-16.74,37.38-37.38,37.38s-37.38-16.74-37.38-37.38h74.76Z"/>
        <path class="cls-4" d="m109.46,66.58h40.69c0,12.52-10.15,22.68-22.68,22.68h0l-18.01-22.68Z"/>
        <path class="cls-8" d="m85.41,53.22c-23.17,0-41.96,18.78-41.96,41.96v52.69c0,6.72,5.45,12.17,12.17,12.17,4.1,0,7.72-2.03,9.93-5.13,2.21,3.11,5.83,5.13,9.93,5.13s7.72-2.03,9.93-5.13c2.21,3.11,5.83,5.13,9.93,5.13s7.72-2.03,9.93-5.13c2.21,3.11,5.83,5.13,9.93,5.13,6.72,0,12.17-5.45,12.17-12.17v-52.69c0-23.17-18.78-41.96-41.96-41.96Z"/>
        <path class="cls-6" d="m47.48,97.9v46.83l39.87-86.7c-22.02,0-39.87,17.85-39.87,39.87Z"/>
        <g>
          <path class="cls-10" d="m85.41,22.7c-6.4,8.57-16.62,14.11-28.14,14.11-2.38,0-4.7-.24-6.94-.69.54,18.91,16.03,34.08,35.07,34.08s34.53-15.17,35.07-34.08c-2.24.45-4.56.69-6.94.69-11.52,0-21.74-5.55-28.14-14.11Z"/>
          <path class="cls-3" d="m85.41,0c-19.39,0-35.1,15.71-35.1,35.1,0,.34.02.68.03,1.02,2.24.45,4.56.69,6.94.69,11.52,0,21.74-5.55,28.14-14.11,6.4,8.57,16.62,14.11,28.14,14.11,2.38,0,4.7-.24,6.94-.69,0-.34.03-.68.03-1.02C120.51,15.71,104.8,0,85.41,0Z"/>
        </g>
        <g>
          <path class="cls-1" d="m76.98,40.6c0,2.09-1.69,3.78-3.78,3.78s-3.78-1.69-3.78-3.78,1.69-3.78,3.78-3.78,3.78,1.69,3.78,3.78Z"/>
          <path class="cls-1" d="m101.41,40.6c0,2.09-1.69,3.78-3.78,3.78s-3.78-1.69-3.78-3.78,1.69-3.78,3.78-3.78,3.78,1.69,3.78,3.78Z"/>
        </g>
        <path class="cls-9" d="m76.96,48.68c0,4.67,3.78,8.45,8.45,8.45s8.45-3.78,8.45-8.45h-16.91Z"/>
        <path class="cls-4" d="m61.14,148.43c0,2.98-2.42,5.4-5.4,5.4s-5.4-2.42-5.4-5.4,2.42-5.4,5.4-5.4,5.4,2.42,5.4,5.4Z"/>
        <path class="cls-4" d="m81.06,148.43c0,2.98-2.42,5.4-5.4,5.4s-5.4-2.42-5.4-5.4,2.42-5.4,5.4-5.4,5.4,2.42,5.4,5.4Z"/>
        <path class="cls-4" d="m100.97,148.43c0,2.98-2.42,5.4-5.4,5.4s-5.4-2.42-5.4-5.4,2.42-5.4,5.4-5.4,5.4,2.42,5.4,5.4Z"/>
        <path class="cls-4" d="m120.88,148.43c0,2.98-2.42,5.4-5.4,5.4s-5.4-2.42-5.4-5.4,2.42-5.4,5.4-5.4,5.4,2.42,5.4,5.4Z"/>
      </g>
      <path class="cls-10" d="m34.17,24.96l-6.87-3.97,6.43-3.71c.57-.33.77-1.07.44-1.64-.33-.57-1.06-.77-1.64-.44l-6.43,3.71v-7.93c0-.66-.54-1.2-1.2-1.2s-1.2.54-1.2,1.2v7.93l-6.43-3.71c-.57-.33-1.31-.13-1.64.44-.33.57-.13,1.31.44,1.64l6.43,3.71-6.87,3.97c-.57.33-.77,1.07-.44,1.64.22.39.63.6,1.04.6.2,0,.41-.05.6-.16l6.87-3.97v7.43c0,.66.54,1.2,1.2,1.2s1.2-.54,1.2-1.2v-7.43l6.87,3.97c.19.11.4.16.6.16.42,0,.82-.22,1.04-.6.33-.57.13-1.31-.44-1.64Z"/>
      <path class="cls-10" d="m164.43,48.72l-6.87-3.97,6.43-3.71c.57-.33.77-1.07.44-1.64-.33-.57-1.06-.77-1.64-.44l-6.43,3.71v-7.93c0-.66-.54-1.2-1.2-1.2s-1.2.54-1.2,1.2v7.93l-6.43-3.71c-.57-.33-1.31-.13-1.64.44-.33.57-.13,1.31.44,1.64l6.43,3.71-6.87,3.97c-.57.33-.77,1.07-.44,1.64.22.39.63.6,1.04.6.2,0,.41-.05.6-.16l6.87-3.97v7.43c0,.66.54,1.2,1.2,1.2s1.2-.54,1.2-1.2v-7.43l6.87,3.97c.19.11.4.16.6.16.42,0,.82-.22,1.04-.6.33-.57.13-1.31-.44-1.64Z"/>
      <path class="cls-10" d="m19.14,119.44l-6.87-3.97,6.43-3.71c.57-.33.77-1.07.44-1.64-.33-.57-1.06-.77-1.64-.44l-6.43,3.71v-7.93c0-.66-.54-1.2-1.2-1.2s-1.2.54-1.2,1.2v7.93l-6.43-3.71c-.57-.33-1.31-.13-1.64.44-.33.57-.13,1.31.44,1.64l6.43,3.71-6.87,3.97c-.57.33-.77,1.07-.44,1.64.22.39.63.6,1.04.6.2,0,.41-.05.6-.16l6.87-3.97v7.43c0,.66.54,1.2,1.2,1.2s1.2-.54,1.2-1.2v-7.43l6.87,3.97c.19.11.4.16.6.16.42,0,.82-.22,1.04-.6.33-.57.13-1.31-.44-1.64Z"/>
    </g>
  </g>
</svg>