<?xml version="1.0" encoding="UTF-8"?>
<svg id="Layer_2" data-name="Layer 2" xmlns="http://www.w3.org/2000/svg" xmlns:xlink="http://www.w3.org/1999/xlink" viewBox="0 0 229.23 135.29">
  <defs>
    <style>
      .cls-1 {
        fill: #c1272d;
      }

      .cls-1, .cls-2, .cls-3, .cls-4, .cls-5, .cls-6, .cls-7, .cls-8, .cls-9 {
        stroke-width: 0px;
      }

      .cls-2 {
        fill: none;
      }

      .cls-3 {
        fill: #c90;
      }

      .cls-4 {
        fill: #fff;
      }

      .cls-5 {
        fill: #231f20;
      }

      .cls-6 {
        fill: url(#_6_dpi_30_);
      }

      .cls-7 {
        fill: #d1d3d4;
      }

      .cls-8 {
        fill: #ceb15f;
      }

      .cls-9 {
        fill: #006837;
      }
    </style>
    <pattern id="_6_dpi_30_" data-name="6 dpi 30%" x="0" y="0" width="48" height="48" patternTransform="translate(-4648.22 -3456.05) rotate(-135) scale(.41 -.41)" patternUnits="userSpaceOnUse" viewBox="0 0 48 48">
      <g>
        <rect class="cls-2" y="0" width="48" height="48"/>
        <g>
          <circle class="cls-5" cx="24" cy="48" r="3.6"/>
          <circle class="cls-5" cx="48" cy="48" r="3.6"/>
          <circle class="cls-5" cx="24" cy="24" r="3.6"/>
          <circle class="cls-5" cx="48" cy="24" r="3.6"/>
          <circle class="cls-5" cx="36" cy="36" r="3.6"/>
          <circle class="cls-5" cx="12" cy="36" r="3.6"/>
          <circle class="cls-5" cx="36" cy="12" r="3.6"/>
          <circle class="cls-5" cx="12" cy="12" r="3.6"/>
        </g>
        <g>
          <circle class="cls-5" cy="48" r="3.6"/>
          <circle class="cls-5" cy="24" r="3.6"/>
        </g>
        <g>
          <circle class="cls-5" cx="24" cy="0" r="3.6"/>
          <circle class="cls-5" cx="48" cy="0" r="3.6"/>
        </g>
        <circle class="cls-5" cy="0" r="3.6"/>
      </g>
    </pattern>
  </defs>
  <g id="Object">
    <g>
      <g>
        <path class="cls-9" d="m18.03,20.66l-3.33,90.25,82.14-56.38-6.16-3.39c-12.5-1.87-24.72-5.2-36.53-9.99-12.96-5.25-25.04-12.12-36.13-20.49Z"/>
        <path class="cls-6" d="m90.68,51.14c-12.5-1.87-24.72-5.2-36.53-9.99-.22-.09-.44-.18-.66-.27L14.7,110.91l82.14-56.38-6.16-3.39Z"/>
        <path class="cls-9" d="m138.55,51.14l-6.16,3.39,82.14,56.38-3.33-90.25c-11.09,8.37-23.17,15.24-36.13,20.49-11.81,4.79-24.03,8.12-36.53,9.99Z"/>
        <path class="cls-6" d="m178.9,39.54c-1.27.55-2.54,1.09-3.83,1.62-11.81,4.79-24.03,8.12-36.53,9.99l-6.16,3.39,81.78,56.13-35.27-71.12Z"/>
      </g>
      <polygon class="cls-1" points="159.4 46.29 114.62 135.29 69.83 46.29 159.4 46.29"/>
      <path class="cls-3" d="m228.23,1.01c-1.34-1.34-3.52-1.34-4.86,0-3.98,3.98-8.15,7.71-12.48,11.2-15.15,12.21-32.29,21.32-50.62,26.99-14.59,4.51-29.94,6.86-45.65,6.86s-31.06-2.35-45.65-6.86c-18.33-5.67-35.47-14.78-50.62-26.99C14.01,8.72,9.84,4.99,5.86,1.01,4.52-.34,2.35-.34,1.01,1.01-.34,2.35-.34,4.52,1.01,5.86c5.37,5.37,11.05,10.3,17.02,14.8,11.09,8.37,23.17,15.24,36.13,20.49,11.81,4.79,24.03,8.12,36.53,9.99,7.88,1.18,15.86,1.78,23.93,1.78s16.05-.6,23.93-1.78c12.5-1.87,24.72-5.2,36.53-9.99,12.96-5.25,25.04-12.12,36.13-20.49,5.97-4.5,11.65-9.44,17.02-14.8,1.34-1.34,1.34-3.51,0-4.86Z"/>
      <path class="cls-4" d="m39.08,58.52l-4.83-6.95,7.89-.66c.7-.06,1.23-.68,1.17-1.38-.06-.7-.68-1.23-1.38-1.17l-7.89.66,3.61-7.65c.3-.64.03-1.4-.61-1.7s-1.4-.03-1.7.61l-3.61,7.65-4.52-6.51c-.4-.58-1.2-.72-1.78-.32-.58.4-.73,1.2-.32,1.78l4.52,6.51-8.43.7c-.7.06-1.23.68-1.17,1.38.04.47.33.86.73,1.05.2.09.42.14.65.12l8.43-.7-3.38,7.17c-.3.64-.03,1.4.61,1.7.64.3,1.4.03,1.7-.61l3.38-7.17,4.83,6.95c.13.19.31.34.5.43.4.19.89.16,1.28-.11.58-.4.73-1.2.32-1.78Z"/>
      <path class="cls-4" d="m46.55,76.7l-7.11.11,3.24-5.82c.29-.52.1-1.18-.42-1.46-.52-.29-1.18-.1-1.46.42l-3.24,5.82-3.65-6.11c-.31-.51-.97-.68-1.48-.37-.51.31-.68.97-.37,1.48l3.65,6.11-6.66.1c-.6,0-1.07.5-1.06,1.09,0,.59.5,1.07,1.09,1.06l6.66-.1-3.46,6.21c-.29.52-.1,1.18.42,1.46.35.19.76.17,1.08-.02.16-.09.29-.23.39-.4l3.46-6.21,3.42,5.72c.31.51.97.68,1.48.37.51-.31.68-.97.37-1.48l-3.42-5.72,7.11-.11c.2,0,.38-.06.54-.15.32-.19.53-.54.52-.94,0-.59-.5-1.07-1.09-1.06Z"/>
      <path class="cls-4" d="m82.55,61.95h4.23c1.12,0,2.02.9,2.02,2.02s-.9,2.02-2.02,2.02h-4.23c-1.12,0-2.02-.9-2.02-2.02s.9-2.02,2.02-2.02Zm12,0h4.23c1.12,0,2.02.9,2.02,2.02s-.9,2.02-2.02,2.02h-4.23c-1.12,0-2.02-.9-2.02-2.02s.9-2.02,2.02-2.02Zm12,0h4.23c1.12,0,2.02.9,2.02,2.02s-.9,2.02-2.02,2.02h-4.23c-1.12,0-2.02-.9-2.02-2.02s.9-2.02,2.02-2.02Zm12,0h4.23c1.12,0,2.02.9,2.02,2.02s-.9,2.02-2.02,2.02h-4.23c-1.12,0-2.02-.9-2.02-2.02s.9-2.02,2.02-2.02Zm12,0h4.23c1.12,0,2.02.9,2.02,2.02s-.9,2.02-2.02,2.02h-4.23c-1.12,0-2.02-.9-2.02-2.02s.9-2.02,2.02-2.02Zm12,0h4.23c1.12,0,2.02.9,2.02,2.02s-.9,2.02-2.02,2.02h-4.23c-1.12,0-2.02-.9-2.02-2.02s.9-2.02,2.02-2.02Z"/>
      <g>
        <circle class="cls-7" cx="134.64" cy="77.98" r="4.22"/>
        <circle class="cls-7" cx="120.87" cy="77.98" r="4.22"/>
        <circle class="cls-7" cx="107.1" cy="77.98" r="4.22"/>
        <circle class="cls-7" cx="93.33" cy="77.98" r="4.22"/>
      </g>
      <polygon class="cls-8" points="181.77 51.15 190.07 57.34 199.87 54.01 196.55 63.81 202.74 72.1 192.39 71.97 186.42 80.42 183.35 70.54 173.46 67.48 181.91 61.5 181.77 51.15"/>
    </g>
  </g>
</svg>