<?xml version="1.0" encoding="UTF-8"?>
<svg id="Layer_2" data-name="Layer 2" xmlns="http://www.w3.org/2000/svg" xmlns:xlink="http://www.w3.org/1999/xlink" viewBox="0 0 153.92 158.41">
  <defs>
    <style>
      .cls-1 {
        fill: #c1272d;
      }

      .cls-1, .cls-2, .cls-3, .cls-4, .cls-5, .cls-6, .cls-7, .cls-8, .cls-9, .cls-10 {
        stroke-width: 0px;
      }

      .cls-2 {
        fill: none;
      }

      .cls-3 {
        fill: #c90;
      }

      .cls-4 {
        fill: #fff;
      }

      .cls-5 {
        fill: #231f20;
      }

      .cls-6 {
        fill: url(#_6_dpi_30_);
      }

      .cls-7 {
        fill: #d1d3d4;
      }

      .cls-8 {
        fill: #911d22;
      }

      .cls-9 {
        fill: #006837;
      }

      .cls-10 {
        fill: #004e29;
      }
    </style>
    <pattern id="_6_dpi_30_" data-name="6 dpi 30%" x="0" y="0" width="48" height="48" patternTransform="translate(-5131.18 -3438.75) rotate(-135) scale(.41 -.41)" patternUnits="userSpaceOnUse" viewBox="0 0 48 48">
      <g>
        <rect class="cls-2" y="0" width="48" height="48"/>
        <g>
          <circle class="cls-5" cx="24" cy="48" r="3.6"/>
          <circle class="cls-5" cx="48" cy="48" r="3.6"/>
          <circle class="cls-5" cx="24" cy="24" r="3.6"/>
          <circle class="cls-5" cx="48" cy="24" r="3.6"/>
          <circle class="cls-5" cx="36" cy="36" r="3.6"/>
          <circle class="cls-5" cx="12" cy="36" r="3.6"/>
          <circle class="cls-5" cx="36" cy="12" r="3.6"/>
          <circle class="cls-5" cx="12" cy="12" r="3.6"/>
        </g>
        <g>
          <circle class="cls-5" cy="48" r="3.6"/>
          <circle class="cls-5" cy="24" r="3.6"/>
        </g>
        <g>
          <circle class="cls-5" cx="24" cy="0" r="3.6"/>
          <circle class="cls-5" cx="48" cy="0" r="3.6"/>
        </g>
        <circle class="cls-5" cy="0" r="3.6"/>
      </g>
    </pattern>
  </defs>
  <g id="Object">
    <g>
      <g>
        <path class="cls-1" d="m153.92,145.93c0,6.89-5.59,12.48-12.48,12.48H12.48c-6.89,0-12.48-5.59-12.48-12.48h0c0-6.89,5.59-12.48,12.48-12.48h128.95c6.89,0,12.48,5.59,12.48,12.48h0Z"/>
        <path class="cls-8" d="m0,145.93c0,6.89,5.59,12.48,12.48,12.48h128.95c6.89,0,12.48-5.59,12.48-12.48H0Z"/>
      </g>
      <path class="cls-3" d="m83.62,51.87h-13.33c-30.67,0-55.54,24.87-55.54,55.54v38.52h124.4v-38.52c0-30.67-24.87-55.54-55.54-55.54Z"/>
      <rect class="cls-6" x="22.19" y="82.1" width="49.12" height="57.84"/>
      <path class="cls-7" d="m142.12,105.92c-.49-12.69-5.04-24.34-12.39-33.68-10.66-13.55-27.21-22.25-45.78-22.25h-13.97c-7.85,0-15.33,1.56-22.16,4.37-5.68,2.34-10.9,5.55-15.51,9.46-4.05,3.44-7.62,7.41-10.6,11.82-5.75,8.51-9.31,18.62-9.87,29.52-.05,1.01-.08,2.03-.08,3.05l.16-.23c.45,2.63,2.73,4.63,5.48,4.63,3.08,0,5.57-2.49,5.57-5.57v-14.19h0c0-2.58,2.09-4.67,4.67-4.67s4.67,2.09,4.67,4.67v-.52h.04c.4,3.9,3.7,6.95,7.71,6.95s7.31-3.05,7.71-6.95h.04v-.8h0v-1.77h0c0-3.24,2.62-5.86,5.86-5.86s5.86,2.62,5.86,5.86v13.55c0,4.28,3.47,7.75,7.76,7.75s7.75-3.47,7.75-7.75v-18.4c0-4.19,3.4-7.59,7.59-7.59s7.59,3.4,7.59,7.59v15.09c0,3.62,2.93,6.55,6.55,6.55s6.55-2.93,6.55-6.55v7.61h0v.61h.03c.31,3.99,3.65,7.14,7.72,7.14s7.41-3.15,7.72-7.14h.03v-12.84c0-2.98,2.42-5.4,5.4-5.4s5.4,2.42,5.4,5.4v9.39c0,3.48,2.82,6.3,6.3,6.3,2.42,0,4.52-1.37,5.57-3.38,0,0,.64-1.01.61-1.77Z"/>
      <g>
        <g>
          <polygon class="cls-9" points="58.22 9.38 58.22 .38 37.22 .38 37.22 22.38 46.22 22.38 46.22 32.38 55.22 32.38 55.22 41.38 78.22 41.38 78.22 19.38 69.22 19.38 69.22 9.38 58.22 9.38"/>
          <polygon class="cls-10" points="77.26 40.71 55.1 40.73 55.09 31.45 45.8 31.46 45.8 22.17 36.53 22.16 36.55 0 77.26 40.71"/>
          <path class="cls-4" d="m72.91,37.43c-.27,0-.54-.1-.75-.31L40.77,5.72c-.41-.41-.41-1.09,0-1.5.41-.41,1.09-.41,1.5,0l31.39,31.39c.41.41.41,1.09,0,1.5-.21.21-.48.31-.75.31Z"/>
        </g>
        <g>
          <polygon class="cls-9" points="109.22 17.38 109.22 8.38 131.22 8.38 131.22 30.38 123.22 30.38 123.22 39.38 112.22 39.38 112.22 48.38 91.22 48.38 91.22 26.38 100.22 26.38 100.22 17.38 109.22 17.38"/>
          <polygon class="cls-10" points="90.76 47.84 112.92 47.86 112.93 38.58 122.22 38.59 122.22 29.3 131.49 29.29 131.47 7.13 90.76 47.84"/>
          <path class="cls-4" d="m95.11,44.56c.27,0,.54-.1.75-.31l31.39-31.39c.41-.41.41-1.09,0-1.5-.41-.41-1.09-.41-1.5,0l-31.39,31.39c-.41.41-.41,1.09,0,1.5.21.21.48.31.75.31Z"/>
        </g>
        <g>
          <circle class="cls-1" cx="77.71" cy="56.53" r="14.03"/>
          <path class="cls-8" d="m70.53,64.44c3.89,3.89,10.28,3.92,14.2,0s3.89-10.31,0-14.2l-14.2,14.2Z"/>
        </g>
      </g>
    </g>
  </g>
</svg>