<?xml version="1.0" encoding="UTF-8"?>
<svg id="Layer_2" data-name="Layer 2" xmlns="http://www.w3.org/2000/svg" xmlns:xlink="http://www.w3.org/1999/xlink" viewBox="0 0 174.55 177.74">
  <defs>
    <style>
      .cls-1 {
        fill: none;
      }

      .cls-1, .cls-2, .cls-3, .cls-4, .cls-5, .cls-6, .cls-7 {
        stroke-width: 0px;
      }

      .cls-2 {
        fill: gray;
      }

      .cls-3 {
        fill: #c90;
      }

      .cls-4 {
        fill: #a7a9ac;
      }

      .cls-5 {
        fill: #231f20;
      }

      .cls-6 {
        fill: url(#_6_dpi_30_);
      }

      .cls-7 {
        fill: #ceb15f;
      }
    </style>
    <pattern id="_6_dpi_30_" data-name="6 dpi 30%" x="0" y="0" width="48" height="48" patternTransform="translate(-4891.61 -2547.55) rotate(-135) scale(.41 -.41)" patternUnits="userSpaceOnUse" viewBox="0 0 48 48">
      <g>
        <rect class="cls-1" y="0" width="48" height="48"/>
        <g>
          <circle class="cls-5" cx="24" cy="48" r="3.6"/>
          <circle class="cls-5" cx="48" cy="48" r="3.6"/>
          <circle class="cls-5" cx="24" cy="24" r="3.6"/>
          <circle class="cls-5" cx="48" cy="24" r="3.6"/>
          <circle class="cls-5" cx="36" cy="36" r="3.6"/>
          <circle class="cls-5" cx="12" cy="36" r="3.6"/>
          <circle class="cls-5" cx="36" cy="12" r="3.6"/>
          <circle class="cls-5" cx="12" cy="12" r="3.6"/>
        </g>
        <g>
          <circle class="cls-5" cy="48" r="3.6"/>
          <circle class="cls-5" cy="24" r="3.6"/>
        </g>
        <g>
          <circle class="cls-5" cx="24" cy="0" r="3.6"/>
          <circle class="cls-5" cx="48" cy="0" r="3.6"/>
        </g>
        <circle class="cls-5" cy="0" r="3.6"/>
      </g>
    </pattern>
  </defs>
  <g id="Object">
    <g>
      <g>
        <polygon class="cls-7" points="87.26 63.74 105.78 101.27 147.19 107.29 117.22 136.5 124.3 177.74 87.26 158.27 50.22 177.74 57.29 136.5 27.33 107.29 68.74 101.27 87.26 63.74"/>
        <polygon class="cls-6" points="88.78 120.74 88.78 65.4 88.01 63.74 69.87 101.27 88.78 120.74"/>
        <polygon class="cls-3" points="27.33 107.29 68.74 101.27 87.27 120.74 27.33 107.29"/>
        <polygon class="cls-2" points="87.27 120.74 87.26 158.27 50.22 177.74 87.27 120.74"/>
        <polygon class="cls-3" points="87.27 120.74 117.22 136.5 147.19 107.29 87.27 120.74"/>
      </g>
      <g>
        <g>
          <path class="cls-4" d="m48.28,14.3l-1.32-2.28c-.67-1.16-2.16-1.56-3.33-.89-1.16.67-1.56,2.16-.89,3.33l1.32,2.28c.45.78,1.27,1.22,2.11,1.22.41,0,.83-.11,1.22-.33,1.16-.67,1.56-2.16.89-3.33Z"/>
          <path class="cls-4" d="m54.8,25.59l-2.29-3.97c-.67-1.16-2.16-1.56-3.33-.89s-1.56,2.16-.89,3.33l2.29,3.97c.45.78,1.27,1.22,2.11,1.22.41,0,.83-.11,1.22-.33,1.16-.67,1.56-2.16.89-3.33Z"/>
          <path class="cls-4" d="m67.84,48.17l-2.29-3.97c-.67-1.17-2.16-1.56-3.33-.89-1.16.67-1.56,2.16-.89,3.33l2.29,3.97c.45.78,1.27,1.22,2.11,1.22.41,0,.83-.11,1.22-.33,1.16-.67,1.56-2.16.89-3.33Z"/>
          <path class="cls-4" d="m61.32,36.88l-2.29-3.97c-.67-1.16-2.16-1.56-3.33-.89-1.16.67-1.56,2.16-.89,3.33l2.29,3.97c.45.78,1.27,1.22,2.11,1.22.41,0,.83-.11,1.22-.33,1.16-.67,1.56-2.16.89-3.33Z"/>
          <path class="cls-4" d="m73.39,57.78l-1.32-2.29c-.67-1.16-2.16-1.56-3.33-.89-1.16.67-1.56,2.16-.89,3.33l1.32,2.29c.45.78,1.27,1.22,2.11,1.22.41,0,.83-.11,1.22-.33,1.16-.67,1.56-2.16.89-3.33Z"/>
        </g>
        <g>
          <path class="cls-4" d="m4.87,84.43h-2.44c-1.35,0-2.44,1.09-2.44,2.44s1.09,2.44,2.44,2.44h2.44c1.35,0,2.44-1.09,2.44-2.44s-1.09-2.44-2.44-2.44Z"/>
          <path class="cls-4" d="m17.86,84.43h-4.47c-1.35,0-2.44,1.09-2.44,2.44s1.09,2.44,2.44,2.44h4.47c1.35,0,2.44-1.09,2.44-2.44s-1.09-2.44-2.44-2.44Z"/>
          <path class="cls-4" d="m30.85,84.43h-4.47c-1.35,0-2.44,1.09-2.44,2.44s1.09,2.44,2.44,2.44h4.47c1.35,0,2.44-1.09,2.44-2.44s-1.09-2.44-2.44-2.44Z"/>
          <path class="cls-4" d="m43.84,84.43h-4.47c-1.35,0-2.44,1.09-2.44,2.44s1.09,2.44,2.44,2.44h4.47c1.35,0,2.44-1.09,2.44-2.44s-1.09-2.44-2.44-2.44Z"/>
          <path class="cls-4" d="m55.21,84.43h-2.44c-1.34,0-2.44,1.09-2.44,2.44s1.09,2.44,2.44,2.44h2.44c1.34,0,2.44-1.09,2.44-2.44s-1.09-2.44-2.44-2.44Z"/>
        </g>
        <g>
          <path class="cls-4" d="m172.11,84.43h-2.84c-1.34,0-2.44,1.09-2.44,2.44s1.09,2.44,2.44,2.44h2.84c1.35,0,2.44-1.09,2.44-2.44s-1.09-2.44-2.44-2.44Z"/>
          <path class="cls-4" d="m135.18,84.43h-4.47c-1.35,0-2.44,1.09-2.44,2.44s1.09,2.44,2.44,2.44h4.47c1.35,0,2.44-1.09,2.44-2.44s-1.09-2.44-2.44-2.44Z"/>
          <path class="cls-4" d="m161.15,84.43h-4.47c-1.35,0-2.44,1.09-2.44,2.44s1.09,2.44,2.44,2.44h4.47c1.35,0,2.44-1.09,2.44-2.44s-1.09-2.44-2.44-2.44Z"/>
          <path class="cls-4" d="m148.17,84.43h-4.47c-1.35,0-2.44,1.09-2.44,2.44s1.09,2.44,2.44,2.44h4.47c1.34,0,2.44-1.09,2.44-2.44s-1.09-2.44-2.44-2.44Z"/>
          <path class="cls-4" d="m121.78,84.43h-2.44c-1.35,0-2.44,1.09-2.44,2.44s1.09,2.44,2.44,2.44h2.44c1.35,0,2.44-1.09,2.44-2.44s-1.09-2.44-2.44-2.44Z"/>
        </g>
        <g>
          <path class="cls-3" d="m83.78,56.83c-1.12,0-2-.91-2-2.03V2.03c0-1.12.88-2.03,2-2.03s2,.91,2,2.03v52.77c0,1.12-.88,2.03-2,2.03Z"/>
          <path class="cls-3" d="m59.58,72.72c-.34,0-.69-.09-1.01-.27L12.8,46.03c-.97-.56-1.3-1.8-.74-2.77.56-.97,1.8-1.3,2.77-.74l45.77,26.42c.97.56,1.3,1.8.74,2.77-.38.65-1.06,1.02-1.76,1.02Z"/>
          <path class="cls-3" d="m114.94,72.72c-.7,0-1.38-.36-1.76-1.02-.56-.97-.23-2.21.74-2.77l45.77-26.42c.97-.56,2.21-.23,2.77.74.56.97.23,2.21-.74,2.77l-45.77,26.42c-.32.18-.67.27-1.01.27Z"/>
        </g>
        <g>
          <path class="cls-4" d="m130.87,11.12c-1.17-.67-2.65-.27-3.33.89l-1.32,2.29c-.67,1.17-.27,2.65.89,3.33.38.22.8.33,1.22.33.84,0,1.66-.44,2.11-1.22l1.32-2.29c.67-1.16.27-2.65-.89-3.33Z"/>
          <path class="cls-4" d="m112.29,43.31c-1.16-.67-2.65-.27-3.33.89l-2.29,3.97c-.67,1.16-.27,2.65.89,3.33.38.22.8.33,1.22.33.84,0,1.66-.44,2.11-1.22l2.29-3.97c.67-1.16.27-2.65-.89-3.33Z"/>
          <path class="cls-4" d="m125.33,20.73c-1.16-.67-2.65-.27-3.33.89l-2.29,3.97c-.67,1.16-.27,2.65.89,3.33.38.22.8.33,1.22.33.84,0,1.66-.44,2.11-1.22l2.29-3.97c.67-1.16.27-2.65-.89-3.33Z"/>
          <path class="cls-4" d="m118.81,32.02c-1.17-.67-2.65-.27-3.33.89l-2.29,3.97c-.67,1.17-.27,2.65.89,3.33.38.22.8.33,1.22.33.84,0,1.66-.44,2.11-1.22l2.29-3.97c.67-1.17.27-2.65-.89-3.33Z"/>
          <path class="cls-4" d="m105.77,54.6c-1.17-.67-2.65-.27-3.33.89l-1.32,2.29c-.67,1.16-.27,2.65.89,3.33.38.22.8.33,1.22.33.84,0,1.66-.44,2.11-1.22l1.32-2.29c.67-1.16.27-2.65-.89-3.33Z"/>
        </g>
        <g>
          <path class="cls-7" d="m95.53,56.89c-.09,0-.19-.01-.28-.04-.58-.16-.93-.75-.77-1.34l13.67-51.05c.16-.58.75-.93,1.34-.77.58.16.93.76.77,1.34l-13.67,51.05c-.13.49-.57.81-1.05.81Z"/>
          <path class="cls-7" d="m64.65,65.17c-.28,0-.56-.11-.77-.32L26.51,27.49c-.43-.43-.43-1.12,0-1.54.43-.43,1.12-.43,1.54,0l37.37,37.36c.43.43.43,1.12,0,1.54-.21.21-.49.32-.77.32Z"/>
          <path class="cls-7" d="m118.12,79.49c-.48,0-.92-.32-1.05-.81-.16-.58.19-1.18.77-1.34l51.04-13.69c.58-.16,1.18.19,1.34.77.16.58-.19,1.18-.77,1.34l-51.04,13.69c-.09.03-.19.04-.28.04Z"/>
        </g>
        <circle class="cls-7" cx="26.23" cy="71.55" r="2.83"/>
        <circle class="cls-7" cx="39.22" cy="73.97" r="2.83"/>
        <path class="cls-7" d="m73.7,23.49c0,1.56-1.26,2.83-2.83,2.83s-2.83-1.26-2.83-2.83,1.26-2.83,2.83-2.83,2.83,1.26,2.83,2.83Z"/>
        <path class="cls-7" d="m135.31,42.14c0,1.56-1.27,2.83-2.83,2.83s-2.83-1.26-2.83-2.83,1.26-2.83,2.83-2.83,2.83,1.26,2.83,2.83Z"/>
      </g>
    </g>
  </g>
</svg>