<?xml version="1.0" encoding="UTF-8"?>
<svg id="Layer_2" data-name="Layer 2" xmlns="http://www.w3.org/2000/svg" xmlns:xlink="http://www.w3.org/1999/xlink" viewBox="0 0 137.64 177.47">
  <defs>
    <style>
      .cls-1 {
        fill: #c1272d;
      }

      .cls-1, .cls-2, .cls-3, .cls-4, .cls-5, .cls-6, .cls-7, .cls-8, .cls-9, .cls-10 {
        stroke-width: 0px;
      }

      .cls-2 {
        fill: none;
      }

      .cls-3 {
        fill: gray;
      }

      .cls-4 {
        fill: #fff;
      }

      .cls-5 {
        fill: #231f20;
      }

      .cls-6 {
        fill: url(#_6_dpi_30_);
      }

      .cls-7 {
        fill: #bcbec0;
      }

      .cls-8 {
        fill: #911d22;
      }

      .cls-9 {
        fill: #ceb15f;
      }

      .cls-10 {
        fill: #006837;
      }
    </style>
    <pattern id="_6_dpi_30_" data-name="6 dpi 30%" x="0" y="0" width="48" height="48" patternTransform="translate(-5130.47 -2551.66) rotate(-135) scale(.41 -.41)" patternUnits="userSpaceOnUse" viewBox="0 0 48 48">
      <g>
        <rect class="cls-2" y="0" width="48" height="48"/>
        <g>
          <circle class="cls-5" cx="24" cy="48" r="3.6"/>
          <circle class="cls-5" cx="48" cy="48" r="3.6"/>
          <circle class="cls-5" cx="24" cy="24" r="3.6"/>
          <circle class="cls-5" cx="48" cy="24" r="3.6"/>
          <circle class="cls-5" cx="36" cy="36" r="3.6"/>
          <circle class="cls-5" cx="12" cy="36" r="3.6"/>
          <circle class="cls-5" cx="36" cy="12" r="3.6"/>
          <circle class="cls-5" cx="12" cy="12" r="3.6"/>
        </g>
        <g>
          <circle class="cls-5" cy="48" r="3.6"/>
          <circle class="cls-5" cy="24" r="3.6"/>
        </g>
        <g>
          <circle class="cls-5" cx="24" cy="0" r="3.6"/>
          <circle class="cls-5" cx="48" cy="0" r="3.6"/>
        </g>
        <circle class="cls-5" cy="0" r="3.6"/>
      </g>
    </pattern>
  </defs>
  <g id="Object">
    <g>
      <g>
        <polygon class="cls-10" points="137.64 152.26 102.14 108.53 129.73 108.49 94.19 64.72 121.43 64.68 68.9 0 16.22 64.84 43.57 64.8 7.91 108.68 35.62 108.64 0 152.47 137.64 152.26"/>
        <polygon class="cls-6" points="68.57 152.36 0 152.47 35.62 108.64 7.91 108.68 43.57 64.8 16.22 64.84 68.9 0 68.57 152.36"/>
      </g>
      <g>
        <circle class="cls-1" cx="82.16" cy="50.69" r="11.62" transform="translate(-11.78 72.94) rotate(-45)"/>
        <path class="cls-8" d="m76.22,57.18c3.22,3.22,8.51,3.25,11.76,0s3.22-8.53,0-11.76l-11.76,11.76Z"/>
      </g>
      <g>
        <circle class="cls-1" cx="48.35" cy="90.14" r="11.62" transform="translate(-48.37 123.43) rotate(-80.78)"/>
        <path class="cls-8" d="m42.4,96.63c3.22,3.22,8.51,3.25,11.76,0,3.25-3.25,3.22-8.53,0-11.76l-11.76,11.76Z"/>
      </g>
      <g>
        <circle class="cls-1" cx="90.43" cy="122.83" r="11.62" transform="translate(-49.89 182.62) rotate(-76.72)"/>
        <path class="cls-8" d="m84.48,129.31c3.22,3.22,8.51,3.25,11.76,0s3.22-8.53,0-11.76l-11.76,11.76Z"/>
      </g>
      <g>
        <rect class="cls-3" x="57.92" y="140.47" width="22" height="37"/>
        <rect class="cls-7" x="57.92" y="140.47" width="12" height="37"/>
      </g>
      <path class="cls-9" d="m93.9,88.99l-6.45-3.72,6.04-3.48c.54-.31.72-1,.41-1.54-.31-.54-1-.72-1.54-.41l-6.04,3.48v-7.45c0-.62-.5-1.13-1.13-1.13s-1.13.5-1.13,1.13v7.45l-6.04-3.48c-.54-.31-1.23-.13-1.54.41-.31.54-.13,1.23.41,1.54l6.04,3.48-6.45,3.72c-.54.31-.72,1-.41,1.54.21.36.59.56.98.56.19,0,.38-.05.56-.15l6.45-3.72v6.97c0,.62.5,1.13,1.13,1.13s1.13-.5,1.13-1.13v-6.97l6.45,3.72c.18.1.37.15.56.15.39,0,.77-.2.98-.56.31-.54.13-1.23-.41-1.54Z"/>
      <path class="cls-4" d="m69.48,34.49l-6.45-3.72,6.04-3.49c.54-.31.72-1,.41-1.54-.31-.54-1-.72-1.54-.41l-6.04,3.49v-7.45c0-.62-.5-1.13-1.13-1.13s-1.13.5-1.13,1.13v7.45l-6.04-3.49c-.54-.31-1.23-.13-1.54.41-.31.54-.13,1.23.41,1.54l6.04,3.49-6.45,3.72c-.54.31-.72,1-.41,1.54.21.36.59.56.98.56.19,0,.38-.05.56-.15l6.45-3.72v6.97c0,.62.5,1.13,1.13,1.13s1.13-.5,1.13-1.13v-6.97l6.45,3.72c.18.1.37.15.56.15.39,0,.77-.2.98-.56.31-.54.13-1.23-.41-1.54Z"/>
      <path class="cls-4" d="m51.11,135.26l-6.45-3.72,6.04-3.49c.54-.31.72-1,.41-1.54-.31-.54-1-.72-1.54-.41l-6.04,3.49v-7.45c0-.62-.5-1.13-1.13-1.13s-1.13.5-1.13,1.13v7.45l-6.04-3.49c-.54-.31-1.23-.13-1.54.41-.31.54-.13,1.23.41,1.54l6.04,3.49-6.45,3.72c-.54.31-.72,1-.41,1.54.21.36.59.56.98.56.19,0,.39-.05.56-.15l6.45-3.72v6.97c0,.62.5,1.13,1.13,1.13s1.13-.5,1.13-1.13v-6.97l6.45,3.72c.18.1.37.15.56.15.39,0,.77-.2.98-.56.31-.54.13-1.23-.41-1.54Z"/>
    </g>
  </g>
</svg>