<?xml version="1.0" encoding="UTF-8"?>
<svg id="Layer_2" data-name="Layer 2" xmlns="http://www.w3.org/2000/svg" xmlns:xlink="http://www.w3.org/1999/xlink" viewBox="0 0 125.17 157.42">
  <defs>
    <style>
      .cls-1 {
        fill: #58595b;
      }

      .cls-1, .cls-2, .cls-3, .cls-4, .cls-5, .cls-6, .cls-7, .cls-8, .cls-9, .cls-10 {
        stroke-width: 0px;
      }

      .cls-2 {
        fill: none;
      }

      .cls-3 {
        fill: #c90;
      }

      .cls-4 {
        fill: #fff;
      }

      .cls-5 {
        fill: #231f20;
      }

      .cls-6 {
        fill: url(#_6_dpi_30_);
      }

      .cls-7 {
        fill: #911d22;
      }

      .cls-8 {
        fill: #ceb15f;
      }

      .cls-9 {
        fill: #006837;
      }

      .cls-10 {
        fill: #004e29;
      }
    </style>
    <pattern id="_6_dpi_30_" data-name="6 dpi 30%" x="0" y="0" width="48" height="48" patternTransform="translate(-5547.66 -2563.4) rotate(-135) scale(.41 -.41)" patternUnits="userSpaceOnUse" viewBox="0 0 48 48">
      <g>
        <rect class="cls-2" y="0" width="48" height="48"/>
        <g>
          <circle class="cls-5" cx="24" cy="48" r="3.6"/>
          <circle class="cls-5" cx="48" cy="48" r="3.6"/>
          <circle class="cls-5" cx="24" cy="24" r="3.6"/>
          <circle class="cls-5" cx="48" cy="24" r="3.6"/>
          <circle class="cls-5" cx="36" cy="36" r="3.6"/>
          <circle class="cls-5" cx="12" cy="36" r="3.6"/>
          <circle class="cls-5" cx="36" cy="12" r="3.6"/>
          <circle class="cls-5" cx="12" cy="12" r="3.6"/>
        </g>
        <g>
          <circle class="cls-5" cy="48" r="3.6"/>
          <circle class="cls-5" cy="24" r="3.6"/>
        </g>
        <g>
          <circle class="cls-5" cx="24" cy="0" r="3.6"/>
          <circle class="cls-5" cx="48" cy="0" r="3.6"/>
        </g>
        <circle class="cls-5" cy="0" r="3.6"/>
      </g>
    </pattern>
  </defs>
  <g id="Object">
    <g>
      <g>
        <path class="cls-3" d="m112.58,58.85h-38.37c11.12-4.57,18.95-15.51,18.95-28.28,0-16.88-13.69-30.57-30.57-30.57s-30.57,13.69-30.57,30.57c0,12.77,7.83,23.7,18.95,28.28H12.59c-6.95,0-12.59,5.64-12.59,12.59s5.64,12.59,12.59,12.59h18.15v60.8c0,6.95,5.64,12.59,12.59,12.59s12.59-5.64,12.59-12.59v-21.09c0-3.68,2.98-6.66,6.66-6.66s6.66,2.98,6.66,6.66v21.09c0,6.95,5.64,12.59,12.59,12.59s12.59-5.64,12.59-12.59v-51.82h0v-8.98h18.15c6.95,0,12.59-5.64,12.59-12.59s-5.64-12.59-12.59-12.59Z"/>
        <path class="cls-8" d="m112.58,58.85h-38.37c11.12-4.57,18.95-15.51,18.95-28.28,0-16.88-13.69-30.57-30.57-30.57h0v117.08h0c3.68,0,6.66,2.98,6.66,6.66v21.09c0,6.95,5.64,12.59,12.59,12.59s12.59-5.64,12.59-12.59v-51.82h0v-8.98h18.15c6.95,0,12.59-5.64,12.59-12.59s-5.64-12.59-12.59-12.59Z"/>
        <path class="cls-3" d="m71.93,144.01c0,5.47,4.43,9.9,9.9,9.9s9.9-4.43,9.9-9.9v-40.75l-19.81,40.75Z"/>
        <path class="cls-6" d="m33.43,144.01c0,5.47,4.43,9.9,9.9,9.9s9.9-4.43,9.9-9.9v-40.75l-19.81,40.75Z"/>
        <path class="cls-3" d="m112.26,81.25c5.47,0,9.9-4.43,9.9-9.9s-4.43-9.9-9.9-9.9v19.81Z"/>
      </g>
      <path class="cls-7" d="m48.17,28.93c0,7.96,6.46,14.42,14.42,14.42s14.42-6.46,14.42-14.42h-28.84Z"/>
      <g>
        <path class="cls-4" d="m66.12,67.42c0,1.95-1.58,3.53-3.53,3.53s-3.53-1.58-3.53-3.53,1.58-3.53,3.53-3.53,3.53,1.58,3.53,3.53Z"/>
        <path class="cls-4" d="m66.12,82.18c0,1.95-1.58,3.53-3.53,3.53s-3.53-1.58-3.53-3.53,1.58-3.53,3.53-3.53,3.53,1.58,3.53,3.53Z"/>
        <path class="cls-4" d="m66.12,96.95c0,1.95-1.58,3.53-3.53,3.53s-3.53-1.58-3.53-3.53,1.58-3.53,3.53-3.53,3.53,1.58,3.53,3.53Z"/>
      </g>
      <g>
        <circle class="cls-1" cx="52.02" cy="20.69" r="3.53"/>
        <path class="cls-1" d="m76.69,20.69c0,1.95-1.58,3.53-3.53,3.53s-3.53-1.58-3.53-3.53,1.58-3.53,3.53-3.53,3.53,1.58,3.53,3.53Z"/>
      </g>
      <g>
        <rect class="cls-9" x="33.67" y="47.27" width="57.9" height="11.9"/>
        <rect class="cls-9" x="71.51" y="59.18" width="14.14" height="37.27"/>
        <rect class="cls-6" x="33.67" y="53.23" width="57.9" height="5.95"/>
        <rect class="cls-10" x="71.51" y="59.18" width="7.07" height="37.27"/>
      </g>
    </g>
  </g>
</svg>