<?xml version="1.0" encoding="UTF-8"?>
<svg id="Layer_2" data-name="Layer 2" xmlns="http://www.w3.org/2000/svg" xmlns:xlink="http://www.w3.org/1999/xlink" viewBox="0 0 122 135.75">
  <defs>
    <style>
      .cls-1 {
        fill: #c1272d;
      }

      .cls-1, .cls-2, .cls-3, .cls-4, .cls-5, .cls-6, .cls-7, .cls-8, .cls-9 {
        stroke-width: 0px;
      }

      .cls-2 {
        fill: none;
      }

      .cls-3 {
        fill: #c90;
      }

      .cls-4 {
        fill: #fff;
      }

      .cls-5 {
        fill: #231f20;
      }

      .cls-6 {
        fill: url(#_6_dpi_30_);
      }

      .cls-7 {
        fill: #bcbec0;
      }

      .cls-8 {
        fill: #911d22;
      }

      .cls-9 {
        fill: #ceb15f;
      }
    </style>
    <pattern id="_6_dpi_30_" data-name="6 dpi 30%" x="0" y="0" width="48" height="48" patternTransform="translate(-4910.4 -2785.38) rotate(-135) scale(.41 -.41)" patternUnits="userSpaceOnUse" viewBox="0 0 48 48">
      <g>
        <rect class="cls-2" y="0" width="48" height="48"/>
        <g>
          <circle class="cls-5" cx="24" cy="48" r="3.6"/>
          <circle class="cls-5" cx="48" cy="48" r="3.6"/>
          <circle class="cls-5" cx="24" cy="24" r="3.6"/>
          <circle class="cls-5" cx="48" cy="24" r="3.6"/>
          <circle class="cls-5" cx="36" cy="36" r="3.6"/>
          <circle class="cls-5" cx="12" cy="36" r="3.6"/>
          <circle class="cls-5" cx="36" cy="12" r="3.6"/>
          <circle class="cls-5" cx="12" cy="12" r="3.6"/>
        </g>
        <g>
          <circle class="cls-5" cy="48" r="3.6"/>
          <circle class="cls-5" cy="24" r="3.6"/>
        </g>
        <g>
          <circle class="cls-5" cx="24" cy="0" r="3.6"/>
          <circle class="cls-5" cx="48" cy="0" r="3.6"/>
        </g>
        <circle class="cls-5" cy="0" r="3.6"/>
      </g>
    </pattern>
  </defs>
  <g id="Object">
    <g>
      <rect class="cls-1" x="8" y="56.75" width="104" height="79"/>
      <rect class="cls-6" x="8" y="56.75" width="51" height="79"/>
      <rect class="cls-7" y="23.75" width="122" height="33"/>
      <rect class="cls-9" y="23.75" width="122" height="19"/>
      <rect class="cls-4" x="57" y="23.75" width="5" height="112"/>
      <path class="cls-3" d="m98.92,3.63c-3.2-2.34-7.16-3.63-11.14-3.63-1.39,0-2.77.15-4.11.46-5.46,1.24-9.26,5.06-12.62,8.44-.31.31-.61.61-.91.92-3.12,3.11-6.35,6.18-9.47,9.16-.21.2-.42.4-.63.6-.21-.2-.42-.4-.63-.6-3.12-2.97-6.35-6.05-9.47-9.16-.3-.3-.61-.61-.91-.92-3.35-3.37-7.16-7.2-12.62-8.44-1.34-.3-2.73-.46-4.11-.46-3.98,0-7.94,1.29-11.14,3.63-8.38,6.12-10.2,17.95-4.04,26.38,3.53,4.84,9.19,7.61,15.52,7.61,3.56,0,7.17-.87,10.45-2.53l.31-.16c1.47-.75,3-1.49,4.48-2.2,1.68-.81,3.42-1.65,5.13-2.53,1.15-.59,2.26-1.27,3.34-1.92,1.29-.78,2.51-1.52,3.71-2.07,1.19.56,2.42,1.3,3.71,2.08,1.08.65,2.2,1.33,3.34,1.92,1.7.88,3.44,1.72,5.13,2.53,1.48.71,3,1.46,4.48,2.21l.33.19c3.26,1.65,6.86,2.56,10.43,2.56h0c6.33,0,11.99-2.82,15.52-7.65,6.15-8.42,4.34-20.3-4.04-26.42Zm-48.43,21.72c-1.64.85-3.35,1.67-5,2.47-1.5.72-3.05,1.47-4.58,2.25l-.32.16c-2.49,1.26-5.24,1.93-7.96,1.93-4.63,0-8.58-1.91-11.11-5.37-4.37-5.99-3.09-14.4,2.85-18.74,2.27-1.66,5.09-2.57,7.92-2.57.98,0,1.96.11,2.91.32,3.91.89,6.84,3.84,9.95,6.96.31.31.62.63.93.94,3.04,3.02,6.15,6,9.17,8.88-.59.34-1.18.7-1.75,1.05-1.05.63-2.04,1.23-3.01,1.74Zm48.06,1.48c-2.53,3.46-6.47,5.41-11.11,5.41h0c-2.71,0-5.46-.71-7.98-1.98l-.3-.19c-1.52-.77-3.07-1.52-4.57-2.25-1.65-.8-3.36-1.62-5-2.47-.98-.5-1.97-1.1-3.01-1.74-.58-.35-1.16-.7-1.75-1.05,3.02-2.88,6.13-5.85,9.17-8.88.31-.31.62-.62.93-.93,3.1-3.12,6.04-6.07,9.95-6.96.95-.21,1.92-.32,2.91-.32,2.83,0,5.64.92,7.92,2.58,5.95,4.34,7.23,12.77,2.85,18.76Z"/>
      <polygon class="cls-8" points="105 129.75 67.58 129.75 105 91.87 105 129.75"/>
    </g>
  </g>
</svg>