<?xml version="1.0" encoding="UTF-8"?>
<svg id="Layer_2" data-name="Layer 2" xmlns="http://www.w3.org/2000/svg" xmlns:xlink="http://www.w3.org/1999/xlink" viewBox="0 0 161.09 179.06">
  <defs>
    <style>
      .cls-1 {
        fill: url(#_6_dpi_30_-8);
      }

      .cls-1, .cls-2, .cls-3, .cls-4, .cls-5, .cls-6, .cls-7, .cls-8, .cls-9, .cls-10, .cls-11, .cls-12, .cls-13, .cls-14, .cls-15, .cls-16, .cls-17, .cls-18 {
        stroke-width: 0px;
      }

      .cls-2 {
        fill: #c1272d;
      }

      .cls-3 {
        fill: url(#_6_dpi_30_-9);
      }

      .cls-4 {
        fill: url(#_6_dpi_30_-6);
      }

      .cls-5 {
        fill: url(#_6_dpi_30_-11);
      }

      .cls-6 {
        fill: none;
      }

      .cls-7 {
        fill: url(#_6_dpi_30_-5);
      }

      .cls-8 {
        fill: url(#_6_dpi_30_-3);
      }

      .cls-9 {
        fill: url(#_6_dpi_30_-2);
      }

      .cls-10 {
        fill: #fff;
      }

      .cls-11 {
        fill: url(#_6_dpi_30_-7);
      }

      .cls-12 {
        fill: url(#_6_dpi_30_-4);
      }

      .cls-13 {
        fill: #231f20;
      }

      .cls-14 {
        fill: url(#_6_dpi_30_);
      }

      .cls-15 {
        fill: #911d22;
      }

      .cls-16 {
        fill: url(#_6_dpi_30_-10);
      }

      .cls-17 {
        fill: #006837;
      }

      .cls-18 {
        fill: #004e29;
      }
    </style>
    <pattern id="_6_dpi_30_" data-name="6 dpi 30%" x="0" y="0" width="48" height="48" patternTransform="translate(-4638.99 -2085.87) rotate(-180) scale(.23 -.23)" patternUnits="userSpaceOnUse" viewBox="0 0 48 48">
      <g>
        <rect class="cls-6" y="0" width="48" height="48"/>
        <g>
          <circle class="cls-13" cx="24" cy="48" r="3.6"/>
          <circle class="cls-13" cx="48" cy="48" r="3.6"/>
          <circle class="cls-13" cx="24" cy="24" r="3.6"/>
          <circle class="cls-13" cx="48" cy="24" r="3.6"/>
          <circle class="cls-13" cx="36" cy="36" r="3.6"/>
          <circle class="cls-13" cx="12" cy="36" r="3.6"/>
          <circle class="cls-13" cx="36" cy="12" r="3.6"/>
          <circle class="cls-13" cx="12" cy="12" r="3.6"/>
        </g>
        <g>
          <circle class="cls-13" cy="48" r="3.6"/>
          <circle class="cls-13" cy="24" r="3.6"/>
        </g>
        <g>
          <circle class="cls-13" cx="24" cy="0" r="3.6"/>
          <circle class="cls-13" cx="48" cy="0" r="3.6"/>
        </g>
        <circle class="cls-13" cy="0" r="3.6"/>
      </g>
    </pattern>
    <pattern id="_6_dpi_30_-2" data-name="6 dpi 30%" patternTransform="translate(-3512.11 -2087.76) rotate(90) scale(.23 -.23)" xlink:href="#_6_dpi_30_"/>
    <pattern id="_6_dpi_30_-3" data-name="6 dpi 30%" patternTransform="translate(-3290.34 -2345.52) rotate(67.74) scale(.23 -.23)" xlink:href="#_6_dpi_30_"/>
    <pattern id="_6_dpi_30_-4" data-name="6 dpi 30%" patternTransform="translate(-3293.86 -3101.03) rotate(22.94) scale(.23 -.23)" xlink:href="#_6_dpi_30_"/>
    <pattern id="_6_dpi_30_-5" data-name="6 dpi 30%" patternTransform="translate(-3573.73 -3290.87) rotate(-3.65) scale(.23 -.23)" xlink:href="#_6_dpi_30_"/>
    <pattern id="_6_dpi_30_-6" data-name="6 dpi 30%" patternTransform="translate(-4285.6 -1930.5) rotate(63.57) scale(.23)" xlink:href="#_6_dpi_30_"/>
    <pattern id="_6_dpi_30_-7" data-name="6 dpi 30%" patternTransform="translate(-4785.53 -2940.41) rotate(153.57) scale(.23)" xlink:href="#_6_dpi_30_"/>
    <pattern id="_6_dpi_30_-8" data-name="6 dpi 30%" patternTransform="translate(-4690.77 -3165.55) rotate(175.82) scale(.23)" xlink:href="#_6_dpi_30_"/>
    <pattern id="_6_dpi_30_-9" data-name="6 dpi 30%" patternTransform="translate(-4481.34 -3477.78) rotate(-167.62) scale(.23)" xlink:href="#_6_dpi_30_"/>
    <pattern id="_6_dpi_30_-10" data-name="6 dpi 30%" patternTransform="translate(-3530.59 -2080.57) scale(.23)" xlink:href="#_6_dpi_30_"/>
    <pattern id="_6_dpi_30_-11" data-name="6 dpi 30%" patternTransform="translate(-4771.6 -2443.48) rotate(112.26) scale(.23)" xlink:href="#_6_dpi_30_"/>
  </defs>
  <g id="Object">
    <g>
      <path class="cls-17" d="m80.88,19.1C38.94,19.1,4.94,53.1,4.94,95.05s34,75.94,75.94,75.94,75.94-34,75.94-75.94S122.82,19.1,80.88,19.1Zm0,113.89c-20.96,0-37.94-16.99-37.94-37.94s16.99-37.94,37.94-37.94,37.94,16.99,37.94,37.94-16.99,37.94-37.94,37.94Z"/>
      <g>
        <circle class="cls-2" cx="21.41" cy="134.06" r="8.35"/>
        <path class="cls-15" d="m17.14,138.73c2.32,2.32,6.12,2.33,8.45,0,2.33-2.33,2.32-6.14,0-8.45l-8.45,8.45Z"/>
      </g>
      <g>
        <circle class="cls-2" cx="54.47" cy="163.75" r="8.35" transform="translate(-115.88 191.28) rotate(-80.78)"/>
        <path class="cls-15" d="m50.2,168.41c2.32,2.32,6.12,2.33,8.45,0s2.32-6.14,0-8.45l-8.45,8.45Z"/>
      </g>
      <g>
        <circle class="cls-2" cx="152.53" cy="94.99" r="8.35"/>
        <path class="cls-15" d="m148.26,99.65c2.32,2.32,6.12,2.33,8.45,0,2.33-2.33,2.32-6.14,0-8.45l-8.45,8.45Z"/>
      </g>
      <g>
        <circle class="cls-2" cx="46.21" cy="76.58" r="8.35" transform="translate(-38.94 103.96) rotate(-76.72)"/>
        <path class="cls-15" d="m41.93,81.24c2.32,2.32,6.12,2.33,8.45,0,2.33-2.33,2.32-6.14,0-8.45l-8.45,8.45Z"/>
      </g>
      <g>
        <circle class="cls-2" cx="99.93" cy="128.43" r="8.35"/>
        <path class="cls-15" d="m95.66,133.09c2.32,2.32,6.12,2.33,8.45,0s2.32-6.14,0-8.45l-8.45,8.45Z"/>
      </g>
      <g>
        <circle class="cls-2" cx="114.21" cy="57.04" r="8.35"/>
        <path class="cls-15" d="m109.93,61.71c2.32,2.32,6.12,2.33,8.45,0,2.33-2.33,2.32-6.14,0-8.45l-8.45,8.45Z"/>
      </g>
      <g>
        <ellipse class="cls-18" cx="13.99" cy="62.93" rx="9.91" ry="17.12" transform="translate(-40.4 28.33) rotate(-45)"/>
        <path class="cls-10" d="m25.06,74.77c-.2,0-.4-.08-.55-.23L2.38,52.41c-.3-.3-.3-.79,0-1.09.3-.3.79-.3,1.09,0l22.14,22.14c.3.3.3.79,0,1.09-.15.15-.35.23-.55.23Z"/>
        <path class="cls-14" d="m6.98,69.94c6.69,6.69,15.25,8.97,19.12,5.1L1.88,50.83c-3.87,3.87-1.59,12.43,5.1,19.12Z"/>
      </g>
      <g>
        <ellipse class="cls-18" cx="13.99" cy="101.32" rx="17.12" ry="9.91" transform="translate(-67.54 39.57) rotate(-45)"/>
        <path class="cls-10" d="m2.92,113.16c-.2,0-.4-.08-.55-.23-.3-.3-.3-.79,0-1.09l22.14-22.14c.3-.3.79-.3,1.09,0,.3.3.3.79,0,1.09L3.47,112.93c-.15.15-.35.23-.55.23Z"/>
        <path class="cls-9" d="m21,108.33c6.69-6.69,8.97-15.25,5.1-19.12L1.88,113.42c3.87,3.87,12.43,1.59,19.12-5.1Z"/>
      </g>
      <g>
        <ellipse class="cls-18" cx="35.52" cy="40.76" rx="17.12" ry="9.91" transform="translate(-15.8 57.76) rotate(-67.26)"/>
        <path class="cls-10" d="m29.46,55.97c-.1,0-.2-.02-.3-.06-.39-.17-.58-.62-.41-1.01l12.1-28.87c.17-.39.62-.58,1.01-.41.39.17.58.62.41,1.01l-12.1,28.87c-.12.3-.41.47-.71.47Z"/>
        <path class="cls-8" d="m44.66,44.59c3.66-8.72,2.53-17.51-2.52-19.62l-13.24,31.58c5.05,2.12,12.11-3.24,15.76-11.96Z"/>
      </g>
      <g>
        <path class="cls-18" d="m36.93,122.32c-3.55-8.76-2.32-17.54,2.76-19.59,5.07-2.06,12.07,3.38,15.62,12.15,3.55,8.76,2.32,17.54-2.76,19.59-5.07,2.06-12.07-3.38-15.62-12.15Z"/>
        <path class="cls-10" d="m52,133.88c-.31,0-.6-.18-.72-.48l-11.76-29.01c-.16-.4.03-.85.43-1.01.4-.16.85.03,1.01.43l11.76,29.01c.16.4-.03.85-.43,1.01-.09.04-.19.06-.29.06Z"/>
        <path class="cls-12" d="m55.3,114.88c-3.55-8.76-10.54-14.2-15.62-12.15l12.86,31.74c5.07-2.06,6.31-10.83,2.76-19.59Z"/>
      </g>
      <g>
        <ellipse class="cls-18" cx="119.19" cy="89.13" rx="9.91" ry="17.12" transform="translate(-26.46 119.73) rotate(-48.65)"/>
        <path class="cls-10" d="m130.94,100.25c-.18,0-.36-.06-.51-.19l-23.5-20.68c-.32-.28-.35-.77-.07-1.09.28-.32.77-.35,1.09-.07l23.5,20.68c.32.28.35.77.07,1.09-.15.17-.37.26-.58.26Z"/>
        <path class="cls-7" d="m125.74,81.69c-7.1-6.25-15.79-7.98-19.4-3.87l25.71,22.62c3.62-4.11.79-12.51-6.31-18.75Z"/>
      </g>
      <g>
        <path class="cls-18" d="m129.52,136.04c-8.96-3.01-17.64-1.25-19.39,3.94-1.74,5.19,4.11,11.84,13.08,14.85,8.96,3.01,17.64,1.25,19.39-3.94s-4.11-11.84-13.08-14.85Z"/>
        <path class="cls-10" d="m141.2,151.2c-.08,0-.16-.01-.25-.04l-29.68-9.97c-.41-.14-.62-.57-.49-.98.14-.4.57-.62.98-.49l29.68,9.97c.4.14.62.57.49.98-.11.32-.41.53-.73.53Z"/>
        <path class="cls-4" d="m123.21,154.83c-8.96-3.01-14.82-9.66-13.08-14.85l32.46,10.9c-1.74,5.19-10.42,6.96-19.39,3.94Z"/>
      </g>
      <g>
        <path class="cls-18" d="m101.39,165.68c3.01-8.96,1.25-17.64-3.94-19.39-5.19-1.74-11.84,4.11-14.85,13.08-3.01,8.96-1.25,17.64,3.94,19.39,5.19,1.74,11.84-4.11,14.85-13.08Z"/>
        <path class="cls-10" d="m87.01,178.14c-.08,0-.16-.01-.25-.04-.41-.14-.62-.57-.49-.98l9.97-29.68c.14-.4.57-.62.98-.49.4.14.62.57.49.98l-9.97,29.68c-.11.32-.41.53-.73.53Z"/>
        <path class="cls-11" d="m82.6,159.37c3.01-8.96,9.66-14.82,14.85-13.08l-10.9,32.46c-5.19-1.74-6.96-10.42-3.94-19.39Z"/>
      </g>
      <g>
        <ellipse class="cls-18" cx="133.62" cy="120.08" rx="17.12" ry="9.91" transform="translate(-44.6 142.69) rotate(-49.18)"/>
        <path class="cls-10" d="m123.39,132.7c-.18,0-.36-.06-.51-.19-.32-.28-.36-.77-.08-1.09l20.47-23.69c.28-.32.77-.36,1.09-.08.32.28.36.77.08,1.09l-20.47,23.69c-.15.18-.37.27-.59.27Z"/>
        <path class="cls-1" d="m126.12,113.6c6.18-7.16,14.55-10.06,18.69-6.48l-22.39,25.91c-4.14-3.58-2.49-12.28,3.69-19.44Z"/>
      </g>
      <g>
        <path class="cls-18" d="m72.82,145.25c7.96-5.1,12.03-12.97,9.08-17.58-2.95-4.61-11.8-4.22-19.77.88s-12.03,12.97-9.08,17.58c2.95,4.61,11.8,4.22,19.77-.88Z"/>
        <path class="cls-10" d="m54.29,146.11c-.25,0-.5-.13-.65-.36-.23-.36-.13-.84.23-1.07l26.37-16.88c.36-.23.84-.13,1.07.23.23.36.13.84-.23,1.07l-26.37,16.88c-.13.08-.27.12-.42.12Z"/>
        <path class="cls-3" d="m62.13,128.55c7.96-5.1,16.81-5.49,19.77-.88l-28.84,18.46c-2.95-4.61,1.11-12.48,9.08-17.58Z"/>
      </g>
      <g>
        <ellipse class="cls-18" cx="147.1" cy="68.23" rx="17.12" ry="9.91" transform="translate(-5.16 124) rotate(-45)"/>
        <path class="cls-10" d="m136.03,80.07c-.2,0-.4-.08-.55-.23-.3-.3-.3-.79,0-1.09l22.14-22.14c.3-.3.79-.3,1.09,0,.3.3.3.79,0,1.09l-22.14,22.14c-.15.15-.35.23-.55.23Z"/>
        <path class="cls-16" d="m154.11,75.24c-6.69,6.69-15.25,8.97-19.12,5.1l24.22-24.22c3.87,3.87,1.59,12.43-5.1,19.12Z"/>
      </g>
      <g>
        <path class="cls-18" d="m139.62,39.84c-3.66-8.72-10.71-14.08-15.76-11.96-5.05,2.12-6.18,10.9-2.52,19.62s10.71,14.08,15.76,11.96c5.05-2.12,6.18-10.9,2.52-19.62Z"/>
        <path class="cls-10" d="m136.53,58.88c-.3,0-.59-.18-.71-.47l-12.1-28.87c-.17-.39.02-.85.41-1.01.39-.16.85.02,1.01.41l12.1,28.87c.17.39-.02.85-.41,1.01-.1.04-.2.06-.3.06Z"/>
        <path class="cls-5" d="m121.34,47.5c-3.66-8.72-2.53-17.51,2.52-19.62l13.24,31.58c-5.05,2.12-12.11-3.24-15.76-11.96Z"/>
      </g>
      <g>
        <polygon class="cls-2" points="110.2 0 80.88 15.32 51.56 0 51.56 39.71 80.88 24.39 110.2 39.71 110.2 0"/>
        <polygon class="cls-15" points="85.05 19.85 106.17 8.82 106.17 30.88 85.05 19.85"/>
      </g>
    </g>
  </g>
</svg>